<svg width="177" height="36" viewBox="0 0 177 36" fill="none" xmlns="http://www.w3.org/2000/svg">
<g clip-path="url(#clip0_11823_4541)">
<mask id="mask0_11823_4541" style="mask-type:luminance" maskUnits="userSpaceOnUse" x="0" y="0" width="177" height="36">
<path d="M176.487 0H0V36H176.487V0Z" fill="white"/>
</mask>
<g mask="url(#mask0_11823_4541)">
<mask id="mask1_11823_4541" style="mask-type:luminance" maskUnits="userSpaceOnUse" x="0" y="0" width="177" height="36">
<path d="M176.487 0H0V36H176.487V0Z" fill="white"/>
</mask>
<g mask="url(#mask1_11823_4541)">
<path d="M42.1763 16.2983V17.8199L46.5447 17.9078C51.6014 18.0185 52.0965 18.1501 52.5268 19.6279C52.6488 19.9366 52.7085 20.2663 52.7025 20.5981C52.6594 20.642 50.8734 20.7527 48.7432 20.8405C42.481 21.1039 41.2545 21.8994 41.2974 25.6698C41.3194 27.633 41.8998 28.7798 43.2556 29.5516C44.2214 30.103 44.245 30.103 50.5292 30.1663L56.8556 30.2321L56.7476 24.5414C56.7947 22.3671 56.6796 20.1923 56.4034 18.035C56.1395 17.4044 55.7601 16.8285 55.2847 16.337C53.9079 14.9251 53.0896 14.7705 47.1936 14.7705H42.1763V16.2983ZM52.7217 25.4959V27.1501L49.365 27.0843C46.3523 27.0185 45.9863 26.9736 45.707 26.5987C45.559 26.3788 45.4627 26.1281 45.4253 25.8657C45.388 25.6032 45.4104 25.3357 45.4912 25.0832C45.5721 24.8308 45.7088 24.5997 45.8917 24.4076C46.0744 24.2156 46.2982 24.0674 46.5465 23.9743C46.8045 23.9303 48.3112 23.8636 49.883 23.8416L52.7236 23.8197L52.7217 25.4959Z" fill="#F05D27"/>
<path d="M60.4677 25.2566V35.7334H64.3408V30.2194H66.1268C70.1508 30.1974 71.3775 29.9323 72.8403 28.8523C74.7553 27.4403 75.6377 25.1644 75.4868 21.9481C75.3788 19.5221 74.7554 17.9556 73.2917 16.5919C71.6128 15.0036 70.6233 14.7832 65.2004 14.7832H60.4677V25.2566ZM69.8717 18.5957C70.9903 19.2103 71.3353 20.0954 71.3353 22.3897C71.3353 25.8308 70.4099 26.6923 66.5579 26.8677L64.3417 26.9785V18.0443L66.773 18.1321C67.8263 18.0798 68.8797 18.2374 69.8717 18.5957Z" fill="#F05D27"/>
<path d="M78.1136 25.2574V35.7342H82.2018V30.2202L84.418 30.1982C87.4525 30.1982 88.3771 30.0656 89.6687 29.4263C91.078 28.6607 92.1678 27.4171 92.7418 25.9194C93.1327 24.9395 93.2944 23.8833 93.2151 22.8313C93.2371 20.3833 93.1071 19.6993 92.3547 18.2654C91.5901 16.8369 90.3144 15.7497 88.7827 15.2213C87.7291 14.8244 86.9967 14.7822 82.8436 14.7822H78.1136V25.2574ZM87.7107 18.5965C88.129 18.8574 88.464 19.2325 88.6765 19.6774C89.0745 21.4565 89.0745 23.3017 88.6765 25.0809C88.2243 26.1836 86.8905 26.7351 84.3292 26.8676L82.1991 26.9783V18.0222L84.6303 18.1329C85.6769 18.0958 86.7214 18.2531 87.7107 18.5965Z" fill="#F05D27"/>
<path d="M100.601 14.799C99.8446 14.8647 99.1091 15.0798 98.4368 15.4318C97.7645 15.784 97.169 16.266 96.6844 16.8501C95.4705 18.1962 94.7829 19.9348 94.7475 21.747C94.4675 25.4085 96.2753 28.9374 98.9437 29.9076C99.9813 30.1356 101.043 30.2394 102.105 30.2167C103.153 30.2069 104.202 30.2512 105.246 30.3492C105.978 30.4818 106.021 30.5249 105.892 31.0516C105.746 31.4511 105.493 31.8025 105.16 32.0667C104.622 32.4636 104.171 32.5303 100.491 32.5936L96.4026 32.6813V35.9898L101.416 35.902C105.547 35.8362 106.559 35.7474 107.269 35.4165C108.295 34.9904 109.124 34.1957 109.593 33.1889C110.046 32.3283 110.067 32.0421 110.132 23.418L110.201 14.5566L105.94 14.5786C103.592 14.6005 101.203 14.6892 100.601 14.799ZM106.087 22.5189V26.9521L103.742 26.8643C101.01 26.7765 100.493 26.5332 99.6971 24.9229C99.3145 24.1425 99.1437 23.2753 99.2018 22.4082C99.2018 19.1216 100.343 18.1936 104.539 18.1058L106.088 18.0838L106.087 22.5189Z" fill="white"/>
<path d="M113.404 16.9169C113.361 25.1222 113.426 26.5561 113.813 27.4596C114.075 28.0211 114.44 28.5289 114.889 28.9567C116.136 30.0156 117.299 30.214 122.593 30.214H127.391V14.5566H123.089V26.6878H121.044C118.72 26.6878 118.031 26.4454 117.707 25.5191C117.508 23.5922 117.436 21.6543 117.492 19.7178V14.5566H113.404V16.9169Z" fill="white"/>
<path d="M131.01 14.69C130.902 14.7778 130.834 18.3075 130.834 22.5424V30.2182H135.136L135.179 23.9982L135.244 17.778L136.319 17.8439C136.786 17.8279 137.248 17.9425 137.653 18.1749C137.909 18.6818 138.049 19.2394 138.062 19.8073L138.213 21.1744H142.301L142.15 19.0566C141.87 14.8875 141.634 14.7111 135.458 14.6013C133.975 14.5271 132.488 14.5567 131.01 14.69Z" fill="white"/>
<path d="M144.391 20.2472C144.341 22.3892 144.413 24.5321 144.606 26.6658C144.766 27.2672 145.05 27.8288 145.439 28.3147C145.827 28.8008 146.313 29.2006 146.865 29.4887L147.94 30.1034L153.277 30.1692L158.591 30.2571V14.5566H154.289V26.6878H152.16C151.324 26.7087 150.488 26.6644 149.659 26.5552C148.819 26.204 148.693 25.3865 148.693 19.8496V14.5566H144.391V20.2472Z" fill="white"/>
<path d="M165.695 14.7112C162.746 15.2187 161.626 16.5638 161.605 19.6081C161.605 21.5494 162.145 22.9385 163.048 23.3574C163.823 23.7323 166.642 24.0414 169.138 24.0414C171.741 24.0414 172.259 24.2836 172.259 25.4752C172.259 26.8203 171.958 26.9091 166.513 26.9091H161.821V30.2385L167.932 30.1727C174.925 30.1069 174.754 30.1509 175.852 28.0996C176.344 27.2535 176.555 26.2727 176.454 25.2987C176.454 23.3802 176.195 22.6523 175.163 21.7698C174.237 20.9541 173.356 20.7549 169.783 20.6011C168.614 20.5821 167.448 20.4646 166.297 20.25C165.739 19.9629 165.802 18.86 166.385 18.4411C166.795 18.154 167.634 18.09 171.334 18.09H175.813V14.5566L171.035 14.5786C168.385 14.6005 165.996 14.6673 165.695 14.7112Z" fill="white"/>
<path d="M18.0765 11.1006C21.0476 11.1006 23.4563 8.63179 23.4563 5.58641C23.4563 2.54104 21.0476 0.0722656 18.0765 0.0722656C15.1053 0.0722656 12.6967 2.54104 12.6967 5.58641C12.6967 8.63179 15.1053 11.1006 18.0765 11.1006Z" fill="#F05D27"/>
<path d="M3.65807 26.4904H11.19V29.468H4.73456C4.47641 29.5557 3.9812 30.4602 3.7687 30.9018C3.16636 32.225 3.7327 32.9213 4.09183 33.1075H12.2691C13.8189 33.1075 14.1341 31.4164 14.0981 30.5708C14.0261 27.2255 13.883 20.1817 13.883 18.7707C13.883 17.3597 12.8073 17.7417 12.2691 18.1086L8.0694 20.8657C6.93237 21.6504 6.12726 22.8296 5.81018 24.1742L2.15221 25.277C2.30093 23.577 2.87059 21.9407 3.80981 20.5158C4.74903 19.091 6.02825 17.9224 7.53203 17.1155L14.4177 12.7043C16.3977 12.0896 17.1072 13.7702 17.2152 14.6895V34.2102C17.228 34.4701 17.1872 34.7297 17.095 34.973C17.0028 35.2163 16.8612 35.4378 16.6794 35.6239C16.4976 35.8099 16.2792 35.9563 16.038 36.0539C15.7969 36.1515 15.5383 36.1982 15.2781 36.1911H2.25934C1.98074 36.2104 1.7011 36.1743 1.43651 36.0849C1.17192 35.9956 0.9276 35.8549 0.717623 35.6707C0.507645 35.4867 0.336153 35.2628 0.213015 35.0122C0.0898762 34.7615 0.0175239 34.489 0.00012207 34.2102C0.860609 27.7698 2.79758 26.3799 3.65807 26.4904Z" fill="#F05D27"/>
<path d="M32.4948 26.4904H24.9628V29.468H31.4183C31.6764 29.5557 32.1717 30.4602 32.3841 30.9018C32.9864 32.225 32.4201 32.9213 32.061 33.1075H23.8872C22.3375 33.1075 22.0223 31.4164 22.0583 30.5708C22.1303 27.2255 22.2734 20.1817 22.2734 18.7707C22.2734 17.3597 23.349 17.7417 23.8872 18.1086L28.0835 20.8657C29.2204 21.6504 30.0256 22.8296 30.3426 24.1742L34.0006 25.277C33.8518 23.577 33.2821 21.9407 32.343 20.5159C31.4036 19.091 30.1245 17.9224 28.6208 17.1155L21.7352 12.7043C19.7552 12.0896 19.0457 13.7702 18.9377 14.6895V34.2102C18.9247 34.4701 18.9657 34.7297 19.0579 34.973C19.1501 35.2163 19.2915 35.4378 19.4735 35.6239C19.6553 35.8099 19.8737 35.9563 20.1147 36.0539C20.3559 36.1515 20.6146 36.1982 20.8746 36.1911H33.8935C34.1725 36.2104 34.4525 36.1741 34.7173 36.0845C34.9821 35.9949 35.2267 35.8537 35.4367 35.6692C35.6467 35.4847 35.8181 35.2603 35.941 35.0092C36.0639 34.7581 36.1359 34.485 36.1528 34.2059C35.2922 27.7698 33.3552 26.3799 32.4948 26.4904Z" fill="white"/>
</g>
</g>
</g>
<defs>
<clipPath id="clip0_11823_4541">
<rect width="176.536" height="36" fill="white"/>
</clipPath>
</defs>
</svg>
