<svg width="34" height="34" viewBox="0 0 34 34" fill="none" xmlns="http://www.w3.org/2000/svg">
<path d="M18.2199 27.0962C18.2199 26.5354 18.2727 25.9869 18.3726 25.4547H5.26382C4.71371 25.4547 4.26773 25.0087 4.26773 24.4586C4.26773 23.9085 4.71371 23.4625 5.26382 23.4625H18.9974C19.3811 22.6105 19.8963 21.8242 20.5242 21.1322C20.4202 21.1683 20.3109 21.1868 20.2008 21.187H5.26382C3.94891 21.1405 3.93975 19.2451 5.26382 19.1948H20.2008C20.8716 19.182 21.3717 19.8864 21.1422 20.5143C22.3343 19.4331 23.8204 18.6708 25.4646 18.3624V7.38774C25.4646 5.61907 24.024 4.25781 22.3346 4.25781H19.5448C19.4131 6.55507 17.5031 8.38383 15.1734 8.38383H10.2912C7.96151 8.38383 6.05154 6.55507 5.91985 4.25781H3.12999C1.44055 4.25781 0 5.61921 0 7.38774V30.8602C0 32.625 1.4377 33.9901 3.12999 33.9901H21.5059C19.5023 32.3594 18.2199 29.8749 18.2199 27.0962ZM5.26382 10.6594H20.2008C20.751 10.6594 21.1969 11.1054 21.1969 11.6555C21.1969 12.2056 20.751 12.6516 20.2008 12.6516H5.26382C3.94818 12.6047 3.94035 10.7095 5.26382 10.6594ZM5.26382 14.9271H20.2008C20.751 14.9271 21.1969 15.3731 21.1969 15.9232C21.1969 16.4733 20.751 16.9193 20.2008 16.9193H5.26382C3.94818 16.8725 3.94035 14.9772 5.26382 14.9271ZM10.5984 29.7224H5.26382C3.94539 29.6743 3.943 27.7794 5.26382 27.7302H10.5984C11.1485 27.7302 11.5945 28.1762 11.5945 28.7263C11.5945 29.2764 11.1485 29.7224 10.5984 29.7224Z" fill="#D74315"/>
<path d="M10.2912 6.39135H15.1734C18.4506 6.24453 18.2768 1.53646 14.9955 1.61721C14.2622 -0.539733 11.2015 -0.538405 10.4691 1.61721C7.20095 1.53048 7.00253 6.23636 10.2912 6.39135ZM27.106 20.2019C23.3047 20.2019 20.2121 23.2945 20.2121 27.0958C20.5586 36.2291 33.6547 36.2266 34 27.0958C34 23.2945 30.9074 20.2019 27.106 20.2019ZM29.8786 26.4212L27.1212 29.1787C26.7322 29.5677 26.1016 29.5677 25.7126 29.1788L24.3336 27.8003C23.435 26.8334 24.7738 25.4926 25.742 26.3914L26.4167 27.0657L28.47 25.0125C29.4375 24.1137 30.7774 25.4537 29.8786 26.4212Z" fill="#D74315"/>
</svg>
