<svg width="10" height="7" viewBox="0 0 10 7" fill="none" xmlns="http://www.w3.org/2000/svg">
<path d="M9.2158 3.08289L6.24314 0.110999C6.16235 0.0372909 6.05624 -0.00242547 5.94691 0.000114753C5.83758 0.00265497 5.73343 0.0472561 5.65615 0.124637C5.57887 0.202018 5.5344 0.306219 5.532 0.415556C5.5296 0.524893 5.56945 0.630945 5.64326 0.711644L7.88995 2.95833H0.42468C0.367418 2.9559 0.310257 2.96508 0.256635 2.98532C0.203014 3.00556 0.154042 3.03643 0.112665 3.07609C0.071288 3.11575 0.0383624 3.16337 0.0158694 3.21608C-0.00662359 3.2688 -0.018219 3.32552 -0.018219 3.38283C-0.018219 3.44015 -0.00662359 3.49687 0.0158694 3.54958C0.0383624 3.6023 0.071288 3.64991 0.112665 3.68957C0.154042 3.72923 0.203014 3.76011 0.256635 3.78035C0.310257 3.80058 0.367418 3.80976 0.42468 3.80733H7.89071L5.64402 6.05402C5.60458 6.09346 5.5733 6.14028 5.55196 6.19181C5.53061 6.24334 5.51963 6.29857 5.51963 6.35434C5.51963 6.41012 5.53061 6.46535 5.55196 6.51688C5.5733 6.56841 5.60458 6.61523 5.64402 6.65466C5.68346 6.6941 5.73028 6.72539 5.78181 6.74673C5.83334 6.76808 5.88857 6.77906 5.94434 6.77906C6.00012 6.77906 6.05535 6.76808 6.10688 6.74673C6.15841 6.72539 6.20523 6.6941 6.24467 6.65466L9.2158 3.68277C9.25519 3.64339 9.28644 3.59663 9.30776 3.54516C9.32909 3.4937 9.34006 3.43854 9.34006 3.38283C9.34006 3.32713 9.32909 3.27197 9.30776 3.2205C9.28644 3.16904 9.25519 3.12228 9.2158 3.08289Z" fill="#1D1D1D"/>
</svg>
