<svg width="350" height="83" viewBox="0 0 350 83" fill="none" xmlns="http://www.w3.org/2000/svg">
<rect x="41.6892" width="55.5405" height="36.2162" rx="18.1081" fill="#D74315"/>
<path d="M66.4443 13.7023L63.3911 22.1082H62.1432L65.6588 12.8852H66.4633L66.4443 13.7023ZM69.0034 22.1082L65.9438 13.7023L65.9248 12.8852H66.7293L70.2576 22.1082H69.0034ZM68.845 18.6939V19.6947H63.6634V18.6939H68.845ZM72.5887 12.3784V22.1082H71.4105V12.3784H72.5887ZM75.7433 12.3784V22.1082H74.565V12.3784H75.7433Z" fill="white"/>
<rect x="107.83" y="0.6" width="87.3405" height="35.0162" rx="17.5081" fill="white"/>
<rect x="107.83" y="0.6" width="87.3405" height="35.0162" rx="17.5081" stroke="#ECECEC" stroke-width="1.2"/>
<path d="M131.972 18.4912H129.508V17.4967H131.972C132.449 17.4967 132.836 17.4207 133.131 17.2686C133.427 17.1166 133.642 16.9055 133.777 16.6352C133.917 16.3649 133.986 16.0566 133.986 15.7104C133.986 15.3936 133.917 15.0959 133.777 14.8172C133.642 14.5385 133.427 14.3147 133.131 14.1457C132.836 13.9726 132.449 13.886 131.972 13.886H129.793V22.1082H128.571V12.8852H131.972C132.669 12.8852 133.258 13.0055 133.739 13.2462C134.221 13.487 134.586 13.8206 134.835 14.2471C135.084 14.6694 135.209 15.1529 135.209 15.6977C135.209 16.2889 135.084 16.7935 134.835 17.2116C134.586 17.6297 134.221 17.9485 133.739 18.1681C133.258 18.3835 132.669 18.4912 131.972 18.4912ZM139.345 22.2348C138.868 22.2348 138.435 22.1546 138.047 21.9941C137.663 21.8294 137.331 21.5993 137.052 21.3037C136.778 21.0081 136.567 20.6576 136.419 20.2522C136.271 19.8468 136.197 19.4033 136.197 18.9219V18.6559C136.197 18.0984 136.28 17.6022 136.444 17.1673C136.609 16.7281 136.833 16.3565 137.116 16.0524C137.399 15.7484 137.72 15.5182 138.079 15.362C138.438 15.2057 138.809 15.1276 139.193 15.1276C139.683 15.1276 140.106 15.212 140.46 15.381C140.819 15.5499 141.113 15.7864 141.341 16.0904C141.569 16.3902 141.738 16.745 141.848 17.1546C141.957 17.56 142.012 18.0034 142.012 18.4848V19.0106H136.894V18.0541H140.84V17.9654C140.823 17.6614 140.76 17.3658 140.65 17.0786C140.545 16.7914 140.376 16.5549 140.144 16.3691C139.911 16.1833 139.595 16.0904 139.193 16.0904C138.927 16.0904 138.682 16.1474 138.459 16.2614C138.235 16.3712 138.043 16.5359 137.882 16.7555C137.722 16.9751 137.597 17.2433 137.508 17.56C137.42 17.8767 137.375 18.242 137.375 18.6559V18.9219C137.375 19.2471 137.42 19.5533 137.508 19.8404C137.601 20.1234 137.734 20.3725 137.908 20.5879C138.085 20.8033 138.298 20.9722 138.547 21.0946C138.801 21.2171 139.088 21.2783 139.409 21.2783C139.823 21.2783 140.173 21.1939 140.46 21.025C140.747 20.856 140.999 20.6301 141.214 20.3472L141.924 20.9109C141.776 21.1348 141.588 21.348 141.36 21.5507C141.132 21.7534 140.851 21.9181 140.517 22.0448C140.188 22.1715 139.797 22.2348 139.345 22.2348ZM144.552 16.7175V22.1082H143.38V15.2543H144.489L144.552 16.7175ZM144.274 18.4215L143.786 18.4025C143.79 17.9337 143.86 17.5009 143.995 17.1039C144.13 16.7027 144.32 16.3544 144.565 16.0587C144.81 15.7631 145.101 15.5351 145.439 15.3746C145.781 15.2099 146.159 15.1276 146.573 15.1276C146.911 15.1276 147.215 15.174 147.485 15.2669C147.755 15.3556 147.986 15.4992 148.176 15.6977C148.37 15.8962 148.518 16.1538 148.619 16.4705C148.72 16.783 148.771 17.1652 148.771 17.617V22.1082H147.593V17.6044C147.593 17.2454 147.54 16.9582 147.435 16.7429C147.329 16.5233 147.175 16.3649 146.972 16.2678C146.769 16.1664 146.52 16.1158 146.225 16.1158C145.933 16.1158 145.667 16.177 145.427 16.2995C145.19 16.4219 144.985 16.5908 144.812 16.8062C144.643 17.0216 144.51 17.2686 144.413 17.5473C144.32 17.8218 144.274 18.1132 144.274 18.4215ZM154.871 20.7779V12.3784H156.049V22.1082H154.973L154.871 20.7779ZM150.26 18.7572V18.6242C150.26 18.1006 150.323 17.6255 150.45 17.1989C150.581 16.7682 150.764 16.3987 151.001 16.0904C151.242 15.7821 151.527 15.5457 151.856 15.381C152.19 15.212 152.561 15.1276 152.971 15.1276C153.402 15.1276 153.777 15.2036 154.098 15.3556C154.424 15.5034 154.698 15.7209 154.922 16.0081C155.15 16.291 155.329 16.6331 155.46 17.0343C155.591 17.4354 155.682 17.8894 155.733 18.3962V18.9789C155.686 19.4815 155.595 19.9333 155.46 20.3345C155.329 20.7357 155.15 21.0777 154.922 21.3607C154.698 21.6436 154.424 21.8611 154.098 22.0131C153.773 22.1609 153.393 22.2348 152.958 22.2348C152.557 22.2348 152.19 22.1483 151.856 21.9751C151.527 21.802 151.242 21.5592 151.001 21.2467C150.764 20.9342 150.581 20.5668 150.45 20.1445C150.323 19.718 150.26 19.2555 150.26 18.7572ZM151.438 18.6242V18.7572C151.438 19.0993 151.472 19.4202 151.539 19.7201C151.611 20.0199 151.721 20.2838 151.869 20.5119C152.016 20.7399 152.204 20.9194 152.432 21.0503C152.66 21.177 152.933 21.2403 153.25 21.2403C153.638 21.2403 153.957 21.158 154.206 20.9933C154.459 20.8286 154.662 20.6111 154.814 20.3408C154.966 20.0706 155.084 19.7771 155.169 19.4604V17.9337C155.118 17.7015 155.044 17.4777 154.947 17.2623C154.854 17.0427 154.732 16.8484 154.58 16.6795C154.432 16.5064 154.248 16.3691 154.029 16.2678C153.813 16.1664 153.558 16.1158 153.262 16.1158C152.941 16.1158 152.665 16.1833 152.432 16.3185C152.204 16.4494 152.016 16.631 151.869 16.8632C151.721 17.0913 151.611 17.3573 151.539 17.6614C151.472 17.9612 151.438 18.2821 151.438 18.6242ZM159.147 15.2543V22.1082H157.969V15.2543H159.147ZM157.88 13.4363C157.88 13.2462 157.937 13.0858 158.051 12.9549C158.169 12.8239 158.342 12.7585 158.571 12.7585C158.794 12.7585 158.965 12.8239 159.084 12.9549C159.206 13.0858 159.267 13.2462 159.267 13.4363C159.267 13.6179 159.206 13.7741 159.084 13.905C158.965 14.0317 158.794 14.0951 158.571 14.0951C158.342 14.0951 158.169 14.0317 158.051 13.905C157.937 13.7741 157.88 13.6179 157.88 13.4363ZM162.2 16.7175V22.1082H161.028V15.2543H162.137L162.2 16.7175ZM161.921 18.4215L161.434 18.4025C161.438 17.9337 161.508 17.5009 161.643 17.1039C161.778 16.7027 161.968 16.3544 162.213 16.0587C162.458 15.7631 162.749 15.5351 163.087 15.3746C163.429 15.2099 163.807 15.1276 164.221 15.1276C164.559 15.1276 164.863 15.174 165.133 15.2669C165.403 15.3556 165.633 15.4992 165.823 15.6977C166.018 15.8962 166.166 16.1538 166.267 16.4705C166.368 16.783 166.419 17.1652 166.419 17.617V22.1082H165.241V17.6044C165.241 17.2454 165.188 16.9582 165.082 16.7429C164.977 16.5233 164.823 16.3649 164.62 16.2678C164.417 16.1664 164.168 16.1158 163.872 16.1158C163.581 16.1158 163.315 16.177 163.074 16.2995C162.838 16.4219 162.633 16.5908 162.46 16.8062C162.291 17.0216 162.158 17.2686 162.061 17.5473C161.968 17.8218 161.921 18.1132 161.921 18.4215ZM172.639 15.2543H173.704V21.9625C173.704 22.5663 173.581 23.0815 173.336 23.5081C173.091 23.9346 172.749 24.2576 172.31 24.4772C171.875 24.7011 171.372 24.813 170.802 24.813C170.566 24.813 170.287 24.775 169.966 24.6989C169.649 24.6272 169.337 24.5026 169.029 24.3252C168.725 24.1521 168.469 23.9177 168.262 23.6221L168.877 22.9253C169.164 23.2716 169.464 23.5123 169.776 23.6474C170.093 23.7826 170.405 23.8501 170.714 23.8501C171.085 23.8501 171.406 23.7805 171.677 23.6411C171.947 23.5017 172.156 23.2948 172.304 23.0203C172.456 22.75 172.532 22.4164 172.532 22.0195V16.7619L172.639 15.2543ZM167.92 18.7572V18.6242C167.92 18.1006 167.981 17.6255 168.104 17.1989C168.231 16.7682 168.41 16.3987 168.642 16.0904C168.879 15.7821 169.164 15.5457 169.497 15.381C169.831 15.212 170.207 15.1276 170.625 15.1276C171.056 15.1276 171.432 15.2036 171.753 15.3556C172.078 15.5034 172.352 15.7209 172.576 16.0081C172.804 16.291 172.984 16.6331 173.114 17.0343C173.245 17.4354 173.336 17.8894 173.387 18.3962V18.9789C173.34 19.4815 173.25 19.9333 173.114 20.3345C172.984 20.7357 172.804 21.0777 172.576 21.3607C172.352 21.6436 172.078 21.8611 171.753 22.0131C171.427 22.1609 171.047 22.2348 170.612 22.2348C170.203 22.2348 169.831 22.1483 169.497 21.9751C169.168 21.802 168.885 21.5592 168.649 21.2467C168.412 20.9342 168.231 20.5668 168.104 20.1445C167.981 19.718 167.92 19.2555 167.92 18.7572ZM169.092 18.6242V18.7572C169.092 19.0993 169.126 19.4202 169.193 19.7201C169.265 20.0199 169.373 20.2838 169.516 20.5119C169.664 20.7399 169.852 20.9194 170.08 21.0503C170.308 21.177 170.581 21.2403 170.897 21.2403C171.286 21.2403 171.607 21.158 171.86 20.9933C172.114 20.8286 172.314 20.6111 172.462 20.3408C172.614 20.0706 172.732 19.7771 172.817 19.4604V17.9337C172.77 17.7015 172.698 17.4777 172.601 17.2623C172.508 17.0427 172.386 16.8484 172.234 16.6795C172.086 16.5064 171.902 16.3691 171.683 16.2678C171.463 16.1664 171.206 16.1158 170.91 16.1158C170.589 16.1158 170.313 16.1833 170.08 16.3185C169.852 16.4494 169.664 16.631 169.516 16.8632C169.373 17.0913 169.265 17.3573 169.193 17.6614C169.126 17.9612 169.092 18.2821 169.092 18.6242Z" fill="#797979"/>
<rect x="206.37" y="0.6" width="101.341" height="35.0162" rx="17.5081" fill="white"/>
<rect x="206.37" y="0.6" width="101.341" height="35.0162" rx="17.5081" stroke="#ECECEC" stroke-width="1.2"/>
<path d="M228.422 12.8852V22.1082H227.2V12.8852H228.422ZM231.64 16.7175V22.1082H230.468V15.2543H231.577L231.64 16.7175ZM231.361 18.4215L230.874 18.4025C230.878 17.9337 230.948 17.5009 231.083 17.1039C231.218 16.7027 231.408 16.3544 231.653 16.0587C231.898 15.7631 232.189 15.5351 232.527 15.3746C232.869 15.2099 233.247 15.1276 233.661 15.1276C233.999 15.1276 234.303 15.174 234.573 15.2669C234.843 15.3556 235.073 15.4992 235.264 15.6977C235.458 15.8962 235.606 16.1538 235.707 16.4705C235.808 16.783 235.859 17.1652 235.859 17.617V22.1082H234.681V17.6044C234.681 17.2454 234.628 16.9582 234.522 16.7429C234.417 16.5233 234.263 16.3649 234.06 16.2678C233.857 16.1664 233.608 16.1158 233.312 16.1158C233.021 16.1158 232.755 16.177 232.514 16.2995C232.278 16.4219 232.073 16.5908 231.9 16.8062C231.731 17.0216 231.598 17.2686 231.501 17.5473C231.408 17.8218 231.361 18.1132 231.361 18.4215ZM238.811 16.5718V24.7433H237.633V15.2543H238.709L238.811 16.5718ZM243.429 18.6242V18.7572C243.429 19.2555 243.369 19.718 243.251 20.1445C243.133 20.5668 242.96 20.9342 242.732 21.2467C242.508 21.5592 242.231 21.802 241.902 21.9751C241.573 22.1483 241.195 22.2348 240.768 22.2348C240.333 22.2348 239.949 22.1631 239.615 22.0195C239.282 21.8759 238.999 21.6669 238.766 21.3924C238.534 21.1179 238.348 20.7885 238.209 20.4042C238.074 20.0199 237.981 19.587 237.93 19.1056V18.3962C237.981 17.8894 238.076 17.4354 238.215 17.0343C238.355 16.6331 238.538 16.291 238.766 16.0081C238.999 15.7209 239.28 15.5034 239.609 15.3556C239.938 15.2036 240.318 15.1276 240.749 15.1276C241.18 15.1276 241.562 15.212 241.896 15.381C242.229 15.5457 242.51 15.7821 242.738 16.0904C242.966 16.3987 243.137 16.7682 243.251 17.1989C243.369 17.6255 243.429 18.1006 243.429 18.6242ZM242.25 18.7572V18.6242C242.25 18.2821 242.215 17.9612 242.143 17.6614C242.071 17.3573 241.959 17.0913 241.807 16.8632C241.659 16.631 241.469 16.4494 241.237 16.3185C241.005 16.1833 240.728 16.1158 240.407 16.1158C240.111 16.1158 239.854 16.1664 239.634 16.2678C239.419 16.3691 239.235 16.5064 239.083 16.6795C238.931 16.8484 238.807 17.0427 238.709 17.2623C238.617 17.4777 238.547 17.7015 238.5 17.9337V19.5744C238.585 19.87 238.703 20.1487 238.855 20.4105C239.007 20.6681 239.21 20.8772 239.463 21.0376C239.717 21.1939 240.035 21.272 240.42 21.272C240.736 21.272 241.009 21.2065 241.237 21.0756C241.469 20.9405 241.659 20.7568 241.807 20.5245C241.959 20.2923 242.071 20.0262 242.143 19.7264C242.215 19.4223 242.25 19.0993 242.25 18.7572ZM246.095 16.3311V22.1082H244.924V15.2543H246.064L246.095 16.3311ZM248.236 15.2163L248.23 16.3058C248.133 16.2847 248.04 16.272 247.951 16.2678C247.867 16.2593 247.77 16.2551 247.66 16.2551C247.39 16.2551 247.151 16.2973 246.944 16.3818C246.737 16.4663 246.562 16.5845 246.418 16.7365C246.275 16.8886 246.161 17.0701 246.076 17.2813C245.996 17.4882 245.943 17.7163 245.918 17.9654L245.589 18.1555C245.589 17.7416 245.629 17.3531 245.709 16.9899C245.793 16.6267 245.922 16.3058 246.095 16.0271C246.269 15.7441 246.488 15.5245 246.754 15.3683C247.024 15.2078 247.345 15.1276 247.717 15.1276C247.802 15.1276 247.899 15.1381 248.008 15.1593C248.118 15.1761 248.194 15.1951 248.236 15.2163ZM248.883 18.7572V18.6115C248.883 18.1174 248.954 17.6593 249.098 17.237C249.242 16.8104 249.448 16.4409 249.719 16.1284C249.989 15.8117 250.316 15.5668 250.701 15.3936C251.085 15.2163 251.516 15.1276 251.993 15.1276C252.474 15.1276 252.907 15.2163 253.291 15.3936C253.68 15.5668 254.009 15.8117 254.28 16.1284C254.554 16.4409 254.763 16.8104 254.907 17.237C255.05 17.6593 255.122 18.1174 255.122 18.6115V18.7572C255.122 19.2513 255.05 19.7095 254.907 20.1318C254.763 20.5541 254.554 20.9236 254.28 21.2403C254.009 21.5528 253.682 21.7978 253.298 21.9751C252.918 22.1483 252.487 22.2348 252.005 22.2348C251.524 22.2348 251.091 22.1483 250.707 21.9751C250.323 21.7978 249.993 21.5528 249.719 21.2403C249.448 20.9236 249.242 20.5541 249.098 20.1318C248.954 19.7095 248.883 19.2513 248.883 18.7572ZM250.054 18.6115V18.7572C250.054 19.0993 250.095 19.4223 250.175 19.7264C250.255 20.0262 250.375 20.2923 250.536 20.5245C250.701 20.7568 250.905 20.9405 251.15 21.0756C251.395 21.2065 251.68 21.272 252.005 21.272C252.326 21.272 252.607 21.2065 252.848 21.0756C253.093 20.9405 253.296 20.7568 253.456 20.5245C253.617 20.2923 253.737 20.0262 253.817 19.7264C253.902 19.4223 253.944 19.0993 253.944 18.7572V18.6115C253.944 18.2737 253.902 17.9549 253.817 17.655C253.737 17.351 253.614 17.0828 253.45 16.8506C253.289 16.6141 253.087 16.4283 252.842 16.2931C252.601 16.158 252.318 16.0904 251.993 16.0904C251.672 16.0904 251.389 16.158 251.144 16.2931C250.903 16.4283 250.701 16.6141 250.536 16.8506C250.375 17.0828 250.255 17.351 250.175 17.655C250.095 17.9549 250.054 18.2737 250.054 18.6115ZM261.032 15.2543H262.096V21.9625C262.096 22.5663 261.974 23.0815 261.729 23.5081C261.484 23.9346 261.142 24.2576 260.703 24.4772C260.268 24.7011 259.765 24.813 259.195 24.813C258.959 24.813 258.68 24.775 258.359 24.6989C258.042 24.6272 257.73 24.5026 257.421 24.3252C257.117 24.1521 256.862 23.9177 256.655 23.6221L257.269 22.9253C257.557 23.2716 257.856 23.5123 258.169 23.6474C258.486 23.7826 258.798 23.8501 259.106 23.8501C259.478 23.8501 259.799 23.7805 260.069 23.6411C260.34 23.5017 260.549 23.2948 260.696 23.0203C260.848 22.75 260.924 22.4164 260.924 22.0195V16.7619L261.032 15.2543ZM256.313 18.7572V18.6242C256.313 18.1006 256.374 17.6255 256.497 17.1989C256.623 16.7682 256.803 16.3987 257.035 16.0904C257.272 15.7821 257.557 15.5457 257.89 15.381C258.224 15.212 258.6 15.1276 259.018 15.1276C259.448 15.1276 259.824 15.2036 260.145 15.3556C260.47 15.5034 260.745 15.7209 260.969 16.0081C261.197 16.291 261.376 16.6331 261.507 17.0343C261.638 17.4354 261.729 17.8894 261.78 18.3962V18.9789C261.733 19.4815 261.642 19.9333 261.507 20.3345C261.376 20.7357 261.197 21.0777 260.969 21.3607C260.745 21.6436 260.47 21.8611 260.145 22.0131C259.82 22.1609 259.44 22.2348 259.005 22.2348C258.595 22.2348 258.224 22.1483 257.89 21.9751C257.561 21.802 257.278 21.5592 257.041 21.2467C256.805 20.9342 256.623 20.5668 256.497 20.1445C256.374 19.718 256.313 19.2555 256.313 18.7572ZM257.485 18.6242V18.7572C257.485 19.0993 257.519 19.4202 257.586 19.7201C257.658 20.0199 257.766 20.2838 257.909 20.5119C258.057 20.7399 258.245 20.9194 258.473 21.0503C258.701 21.177 258.973 21.2403 259.29 21.2403C259.679 21.2403 260 21.158 260.253 20.9933C260.506 20.8286 260.707 20.6111 260.855 20.3408C261.007 20.0706 261.125 19.7771 261.209 19.4604V17.9337C261.163 17.7015 261.091 17.4777 260.994 17.2623C260.901 17.0427 260.779 16.8484 260.627 16.6795C260.479 16.5064 260.295 16.3691 260.076 16.2678C259.856 16.1664 259.598 16.1158 259.303 16.1158C258.982 16.1158 258.705 16.1833 258.473 16.3185C258.245 16.4494 258.057 16.631 257.909 16.8632C257.766 17.0913 257.658 17.3573 257.586 17.6614C257.519 17.9612 257.485 18.2821 257.485 18.6242ZM265.048 16.3311V22.1082H263.876V15.2543H265.016L265.048 16.3311ZM267.189 15.2163L267.183 16.3058C267.086 16.2847 266.993 16.272 266.904 16.2678C266.82 16.2593 266.723 16.2551 266.613 16.2551C266.342 16.2551 266.104 16.2973 265.897 16.3818C265.69 16.4663 265.515 16.5845 265.371 16.7365C265.228 16.8886 265.114 17.0701 265.029 17.2813C264.949 17.4882 264.896 17.7163 264.871 17.9654L264.541 18.1555C264.541 17.7416 264.581 17.3531 264.662 16.9899C264.746 16.6267 264.875 16.3058 265.048 16.0271C265.221 15.7441 265.441 15.5245 265.707 15.3683C265.977 15.2078 266.298 15.1276 266.67 15.1276C266.754 15.1276 266.851 15.1381 266.961 15.1593C267.071 15.1761 267.147 15.1951 267.189 15.2163ZM271.003 22.2348C270.525 22.2348 270.092 22.1546 269.704 21.9941C269.32 21.8294 268.988 21.5993 268.709 21.3037C268.435 21.0081 268.224 20.6576 268.076 20.2522C267.928 19.8468 267.854 19.4033 267.854 18.9219V18.6559C267.854 18.0984 267.937 17.6022 268.101 17.1673C268.266 16.7281 268.49 16.3565 268.773 16.0524C269.056 15.7484 269.377 15.5182 269.736 15.362C270.095 15.2057 270.466 15.1276 270.85 15.1276C271.34 15.1276 271.763 15.212 272.117 15.381C272.476 15.5499 272.77 15.7864 272.998 16.0904C273.226 16.3902 273.395 16.745 273.505 17.1546C273.614 17.56 273.669 18.0034 273.669 18.4848V19.0106H268.551V18.0541H272.497V17.9654C272.481 17.6614 272.417 17.3658 272.307 17.0786C272.202 16.7914 272.033 16.5549 271.801 16.3691C271.568 16.1833 271.252 16.0904 270.85 16.0904C270.584 16.0904 270.34 16.1474 270.116 16.2614C269.892 16.3712 269.7 16.5359 269.539 16.7555C269.379 16.9751 269.254 17.2433 269.166 17.56C269.077 17.8767 269.033 18.242 269.033 18.6559V18.9219C269.033 19.2471 269.077 19.5533 269.166 19.8404C269.258 20.1234 269.391 20.3725 269.565 20.5879C269.742 20.8033 269.955 20.9722 270.204 21.0946C270.458 21.2171 270.745 21.2783 271.066 21.2783C271.48 21.2783 271.83 21.1939 272.117 21.025C272.405 20.856 272.656 20.6301 272.871 20.3472L273.581 20.9109C273.433 21.1348 273.245 21.348 273.017 21.5507C272.789 21.7534 272.508 21.9181 272.174 22.0448C271.845 22.1715 271.454 22.2348 271.003 22.2348ZM279.028 20.2902C279.028 20.1212 278.99 19.965 278.914 19.8214C278.842 19.6736 278.693 19.5406 278.465 19.4223C278.241 19.2999 277.903 19.1943 277.451 19.1056C277.071 19.0254 276.727 18.9304 276.418 18.8206C276.114 18.7108 275.855 18.5777 275.639 18.4215C275.428 18.2652 275.266 18.0815 275.152 17.8704C275.038 17.6593 274.981 17.4122 274.981 17.1293C274.981 16.859 275.04 16.6035 275.158 16.3628C275.28 16.1221 275.451 15.9088 275.671 15.723C275.895 15.5372 276.163 15.3915 276.475 15.2859C276.788 15.1804 277.136 15.1276 277.521 15.1276C278.07 15.1276 278.538 15.2247 278.927 15.419C279.315 15.6132 279.613 15.8729 279.82 16.1981C280.027 16.519 280.13 16.8759 280.13 17.2686H278.959C278.959 17.0786 278.902 16.8949 278.788 16.7175C278.678 16.5359 278.515 16.386 278.3 16.2678C278.089 16.1495 277.829 16.0904 277.521 16.0904C277.196 16.0904 276.932 16.1411 276.729 16.2424C276.53 16.3396 276.385 16.4642 276.292 16.6162C276.203 16.7682 276.159 16.9287 276.159 17.0976C276.159 17.2243 276.18 17.3383 276.222 17.4397C276.269 17.5368 276.349 17.6276 276.463 17.712C276.577 17.7923 276.737 17.8683 276.944 17.9401C277.151 18.0119 277.415 18.0837 277.736 18.1555C278.298 18.2821 278.76 18.4342 279.123 18.6115C279.486 18.7889 279.757 19.0064 279.934 19.264C280.111 19.5216 280.2 19.8341 280.2 20.2015C280.2 20.5013 280.137 20.7758 280.01 21.025C279.888 21.2741 279.708 21.4895 279.472 21.6711C279.239 21.8484 278.961 21.9878 278.636 22.0892C278.315 22.1863 277.954 22.2348 277.552 22.2348C276.948 22.2348 276.437 22.1272 276.019 21.9118C275.601 21.6964 275.285 21.4177 275.069 21.0756C274.854 20.7336 274.746 20.3725 274.746 19.9924H275.924C275.941 20.3134 276.034 20.5689 276.203 20.7589C276.372 20.9447 276.579 21.0777 276.824 21.158C277.069 21.234 277.312 21.272 277.552 21.272C277.873 21.272 278.141 21.2298 278.357 21.1453C278.576 21.0609 278.743 20.9447 278.857 20.7969C278.971 20.6491 279.028 20.4802 279.028 20.2902ZM285.73 20.2902C285.73 20.1212 285.692 19.965 285.616 19.8214C285.544 19.6736 285.394 19.5406 285.166 19.4223C284.943 19.2999 284.605 19.1943 284.153 19.1056C283.773 19.0254 283.429 18.9304 283.12 18.8206C282.816 18.7108 282.557 18.5777 282.341 18.4215C282.13 18.2652 281.967 18.0815 281.853 17.8704C281.739 17.6593 281.682 17.4122 281.682 17.1293C281.682 16.859 281.742 16.6035 281.86 16.3628C281.982 16.1221 282.153 15.9088 282.373 15.723C282.597 15.5372 282.865 15.3915 283.177 15.2859C283.49 15.1804 283.838 15.1276 284.223 15.1276C284.772 15.1276 285.24 15.2247 285.629 15.419C286.017 15.6132 286.315 15.8729 286.522 16.1981C286.729 16.519 286.832 16.8759 286.832 17.2686H285.66C285.66 17.0786 285.603 16.8949 285.489 16.7175C285.38 16.5359 285.217 16.386 285.002 16.2678C284.791 16.1495 284.531 16.0904 284.223 16.0904C283.897 16.0904 283.633 16.1411 283.431 16.2424C283.232 16.3396 283.087 16.4642 282.994 16.6162C282.905 16.7682 282.861 16.9287 282.861 17.0976C282.861 17.2243 282.882 17.3383 282.924 17.4397C282.97 17.5368 283.051 17.6276 283.165 17.712C283.279 17.7923 283.439 17.8683 283.646 17.9401C283.853 18.0119 284.117 18.0837 284.438 18.1555C285 18.2821 285.462 18.4342 285.825 18.6115C286.188 18.7889 286.459 19.0064 286.636 19.264C286.813 19.5216 286.902 19.8341 286.902 20.2015C286.902 20.5013 286.839 20.7758 286.712 21.025C286.59 21.2741 286.41 21.4895 286.174 21.6711C285.941 21.8484 285.663 21.9878 285.337 22.0892C285.016 22.1863 284.655 22.2348 284.254 22.2348C283.65 22.2348 283.139 22.1272 282.721 21.9118C282.303 21.6964 281.986 21.4177 281.771 21.0756C281.556 20.7336 281.448 20.3725 281.448 19.9924H282.626C282.643 20.3134 282.736 20.5689 282.905 20.7589C283.074 20.9447 283.281 21.0777 283.526 21.158C283.771 21.234 284.014 21.272 284.254 21.272C284.575 21.272 284.843 21.2298 285.059 21.1453C285.278 21.0609 285.445 20.9447 285.559 20.7969C285.673 20.6491 285.73 20.4802 285.73 20.2902Z" fill="#797979"/>
<rect x="15.2892" y="46.8163" width="98.3405" height="35.0162" rx="17.5081" fill="white"/>
<rect x="15.2892" y="46.8163" width="98.3405" height="35.0162" rx="17.5081" stroke="#ECECEC" stroke-width="1.2"/>
<path d="M41.3066 59.1015H42.5228V65.3409C42.5228 66.0335 42.3687 66.6099 42.0604 67.0702C41.7521 67.5305 41.3425 67.8768 40.8315 68.1091C40.3248 68.3371 39.7737 68.4512 39.1782 68.4512C38.5532 68.4512 37.9873 68.3371 37.4806 68.1091C36.9781 67.8768 36.579 67.5305 36.2834 67.0702C35.992 66.6099 35.8463 66.0335 35.8463 65.3409V59.1015H37.0562V65.3409C37.0562 65.8224 37.1449 66.2193 37.3222 66.5318C37.4996 66.8443 37.7466 67.0766 38.0634 67.2286C38.3843 67.3806 38.7559 67.4566 39.1782 67.4566C39.6047 67.4566 39.9764 67.3806 40.2931 67.2286C40.614 67.0766 40.8632 66.8443 41.0406 66.5318C41.2179 66.2193 41.3066 65.8224 41.3066 65.3409V59.1015ZM45.4367 62.7881V70.9596H44.2585V61.4706H45.3353L45.4367 62.7881ZM50.0545 64.8405V64.9735C50.0545 65.4718 49.9954 65.9343 49.8771 66.3608C49.7589 66.7831 49.5857 67.1505 49.3577 67.463C49.1339 67.7755 48.8573 68.0183 48.5279 68.1914C48.1985 68.3646 47.8205 68.4512 47.394 68.4512C46.959 68.4512 46.5748 68.3794 46.2411 68.2358C45.9075 68.0922 45.6246 67.8832 45.3923 67.6087C45.1601 67.3342 44.9743 67.0048 44.8349 66.6205C44.6998 66.2362 44.6069 65.8033 44.5562 65.3219V64.6125C44.6069 64.1057 44.7019 63.6517 44.8412 63.2506C44.9806 62.8494 45.1643 62.5073 45.3923 62.2244C45.6246 61.9372 45.9054 61.7197 46.2348 61.5719C46.5642 61.4199 46.9443 61.3439 47.375 61.3439C47.8058 61.3439 48.1879 61.4283 48.5215 61.5973C48.8552 61.762 49.136 61.9984 49.364 62.3067C49.5921 62.615 49.7631 62.9845 49.8771 63.4153C49.9954 63.8418 50.0545 64.3169 50.0545 64.8405ZM48.8763 64.9735V64.8405C48.8763 64.4984 48.8404 64.1775 48.7686 63.8777C48.6968 63.5736 48.5849 63.3076 48.4329 63.0795C48.2851 62.8473 48.095 62.6657 47.8628 62.5348C47.6305 62.3996 47.3539 62.3321 47.033 62.3321C46.7373 62.3321 46.4797 62.3827 46.2601 62.4841C46.0448 62.5854 45.8611 62.7227 45.7091 62.8958C45.557 63.0648 45.4324 63.259 45.3353 63.4786C45.2424 63.694 45.1727 63.9178 45.1263 64.1501V65.7907C45.2107 66.0863 45.329 66.365 45.481 66.6268C45.633 66.8844 45.8357 67.0935 46.0891 67.2539C46.3425 67.4102 46.6613 67.4883 47.0456 67.4883C47.3623 67.4883 47.6347 67.4229 47.8628 67.2919C48.095 67.1568 48.2851 66.9731 48.4329 66.7408C48.5849 66.5086 48.6968 66.2425 48.7686 65.9427C48.8404 65.6387 48.8763 65.3156 48.8763 64.9735ZM54.2922 67.4883C54.571 67.4883 54.8286 67.4313 55.065 67.3173C55.3015 67.2033 55.4958 67.047 55.6478 66.8485C55.7998 66.6458 55.8864 66.4157 55.9075 66.1581H57.0224C57.0013 66.5635 56.864 66.9414 56.6107 67.2919C56.3615 67.6382 56.0342 67.9191 55.6288 68.1344C55.2234 68.3456 54.7779 68.4512 54.2922 68.4512C53.777 68.4512 53.3273 68.3604 52.943 68.1788C52.5629 67.9972 52.2462 67.748 51.9928 67.4313C51.7437 67.1146 51.5558 66.7514 51.4291 66.3418C51.3066 65.9279 51.2454 65.4908 51.2454 65.0305V64.7645C51.2454 64.3042 51.3066 63.8692 51.4291 63.4596C51.5558 63.0457 51.7437 62.6805 51.9928 62.3637C52.2462 62.047 52.5629 61.7979 52.943 61.6163C53.3273 61.4347 53.777 61.3439 54.2922 61.3439C54.8286 61.3439 55.2973 61.4537 55.6985 61.6733C56.0997 61.8887 56.4143 62.1843 56.6423 62.5601C56.8746 62.9317 57.0013 63.354 57.0224 63.827H55.9075C55.8864 63.5441 55.8062 63.2886 55.6668 63.0605C55.5317 62.8325 55.3459 62.6509 55.1094 62.5158C54.8771 62.3764 54.6047 62.3067 54.2922 62.3067C53.9333 62.3067 53.6313 62.3785 53.3864 62.5221C53.1457 62.6615 52.9536 62.8515 52.81 63.0922C52.6706 63.3287 52.5693 63.5926 52.5059 63.884C52.4468 64.1712 52.4172 64.4647 52.4172 64.7645V65.0305C52.4172 65.3304 52.4468 65.626 52.5059 65.9174C52.565 66.2088 52.6643 66.4727 52.8036 66.7092C52.9472 66.9457 53.1394 67.1357 53.3801 67.2793C53.625 67.4186 53.9291 67.4883 54.2922 67.4883ZM58.0296 64.9735V64.8278C58.0296 64.3338 58.1014 63.8756 58.2449 63.4533C58.3885 63.0267 58.5955 62.6572 58.8657 62.3447C59.136 62.028 59.4633 61.7831 59.8476 61.6099C60.2319 61.4326 60.6626 61.3439 61.1398 61.3439C61.6212 61.3439 62.0541 61.4326 62.4384 61.6099C62.8269 61.7831 63.1563 62.028 63.4265 62.3447C63.701 62.6572 63.9101 63.0267 64.0536 63.4533C64.1972 63.8756 64.269 64.3338 64.269 64.8278V64.9735C64.269 65.4676 64.1972 65.9258 64.0536 66.3481C63.9101 66.7704 63.701 67.1399 63.4265 67.4566C63.1563 67.7691 62.829 68.0141 62.4447 68.1914C62.0646 68.3646 61.6339 68.4512 61.1525 68.4512C60.671 68.4512 60.2382 68.3646 59.8539 68.1914C59.4696 68.0141 59.1402 67.7691 58.8657 67.4566C58.5955 67.1399 58.3885 66.7704 58.2449 66.3481C58.1014 65.9258 58.0296 65.4676 58.0296 64.9735ZM59.2014 64.8278V64.9735C59.2014 65.3156 59.2416 65.6387 59.3218 65.9427C59.402 66.2425 59.5224 66.5086 59.6829 66.7408C59.8476 66.9731 60.0524 67.1568 60.2973 67.2919C60.5422 67.4229 60.8273 67.4883 61.1525 67.4883C61.4734 67.4883 61.7542 67.4229 61.9949 67.2919C62.2399 67.1568 62.4426 66.9731 62.6031 66.7408C62.7635 66.5086 62.8839 66.2425 62.9641 65.9427C63.0486 65.6387 63.0908 65.3156 63.0908 64.9735V64.8278C63.0908 64.49 63.0486 64.1712 62.9641 63.8713C62.8839 63.5673 62.7614 63.2991 62.5967 63.0669C62.4362 62.8304 62.2335 62.6446 61.9886 62.5094C61.7479 62.3743 61.465 62.3067 61.1398 62.3067C60.8188 62.3067 60.5359 62.3743 60.291 62.5094C60.0503 62.6446 59.8476 62.8304 59.6829 63.0669C59.5224 63.2991 59.402 63.5673 59.3218 63.8713C59.2416 64.1712 59.2014 64.49 59.2014 64.8278ZM66.9042 62.8325V68.3245H65.7259V61.4706H66.8408L66.9042 62.8325ZM66.6634 64.6378L66.1187 64.6188C66.1229 64.1501 66.1841 63.7172 66.3024 63.3202C66.4206 62.9191 66.5959 62.5707 66.8281 62.2751C67.0604 61.9794 67.3497 61.7514 67.696 61.5909C68.0422 61.4262 68.4434 61.3439 68.8995 61.3439C69.2205 61.3439 69.5161 61.3903 69.7863 61.4832C70.0566 61.5719 70.291 61.7134 70.4895 61.9077C70.6879 62.1019 70.8421 62.3511 70.9519 62.6551C71.0617 62.9592 71.1166 63.3266 71.1166 63.7573V68.3245H69.9447V63.8143C69.9447 63.4554 69.8835 63.1682 69.761 62.9528C69.6427 62.7375 69.4738 62.5812 69.2542 62.4841C69.0346 62.3827 68.777 62.3321 68.4814 62.3321C68.1351 62.3321 67.8459 62.3933 67.6136 62.5158C67.3813 62.6382 67.1955 62.8071 67.0562 63.0225C66.9168 63.2379 66.8155 63.4849 66.7521 63.7637C66.693 64.0381 66.6634 64.3295 66.6634 64.6378ZM71.1039 63.9917L70.3184 64.2324C70.3226 63.8566 70.3839 63.4955 70.5021 63.1492C70.6246 62.8029 70.7998 62.4946 71.0279 62.2244C71.2601 61.9541 71.5452 61.7408 71.883 61.5846C72.2209 61.4241 72.6073 61.3439 73.0422 61.3439C73.4096 61.3439 73.7348 61.3925 74.0177 61.4896C74.3049 61.5867 74.5456 61.7366 74.7399 61.9393C74.9384 62.1378 75.0883 62.3933 75.1896 62.7058C75.291 63.0183 75.3417 63.3899 75.3417 63.8207V68.3245H74.1634V63.808C74.1634 63.4237 74.1022 63.126 73.9797 62.9148C73.8615 62.6995 73.6926 62.5495 73.473 62.4651C73.2576 62.3764 73 62.3321 72.7002 62.3321C72.4426 62.3321 72.2145 62.3764 72.0161 62.4651C71.8176 62.5538 71.6508 62.6762 71.5156 62.8325C71.3805 62.9845 71.277 63.1598 71.2052 63.3582C71.1377 63.5567 71.1039 63.7679 71.1039 63.9917ZM78.3885 61.4706V68.3245H77.2103V61.4706H78.3885ZM77.1216 59.6526C77.1216 59.4626 77.1786 59.3021 77.2927 59.1712C77.4109 59.0403 77.5841 58.9748 77.8121 58.9748C78.0359 58.9748 78.2069 59.0403 78.3252 59.1712C78.4476 59.3021 78.5089 59.4626 78.5089 59.6526C78.5089 59.8342 78.4476 59.9904 78.3252 60.1213C78.2069 60.248 78.0359 60.3114 77.8121 60.3114C77.5841 60.3114 77.4109 60.248 77.2927 60.1213C77.1786 59.9904 77.1216 59.8342 77.1216 59.6526ZM81.4417 62.9338V68.3245H80.2699V61.4706H81.3784L81.4417 62.9338ZM81.163 64.6378L80.6753 64.6188C80.6795 64.1501 80.7492 63.7172 80.8843 63.3202C81.0194 62.9191 81.2095 62.5707 81.4544 62.2751C81.6993 61.9794 81.9907 61.7514 82.3286 61.5909C82.6706 61.4262 83.0486 61.3439 83.4624 61.3439C83.8003 61.3439 84.1043 61.3903 84.3746 61.4832C84.6449 61.5719 84.875 61.7155 85.065 61.914C85.2593 62.1125 85.4071 62.3701 85.5085 62.6868C85.6098 62.9993 85.6605 63.3815 85.6605 63.8333V68.3245H84.4823V63.8207C84.4823 63.4617 84.4295 63.1745 84.3239 62.9592C84.2183 62.7396 84.0642 62.5812 83.8615 62.4841C83.6588 62.3827 83.4096 62.3321 83.114 62.3321C82.8226 62.3321 82.5566 62.3933 82.3159 62.5158C82.0794 62.6382 81.8746 62.8071 81.7014 63.0225C81.5325 63.2379 81.3995 63.4849 81.3024 63.7637C81.2095 64.0381 81.163 64.3295 81.163 64.6378ZM91.8809 61.4706H92.9451V68.1788C92.9451 68.7827 92.8226 69.2979 92.5777 69.7244C92.3328 70.1509 91.9907 70.474 91.5515 70.6936C91.1166 70.9174 90.614 71.0293 90.0439 71.0293C89.8074 71.0293 89.5287 70.9913 89.2078 70.9153C88.8911 70.8435 88.5786 70.7189 88.2703 70.5415C87.9662 70.3684 87.7107 70.134 87.5038 69.8384L88.1183 69.1416C88.4054 69.4879 88.7052 69.7286 89.0177 69.8637C89.3345 69.9989 89.647 70.0664 89.9552 70.0664C90.3269 70.0664 90.6478 69.9968 90.9181 69.8574C91.1884 69.718 91.3974 69.5111 91.5452 69.2366C91.6972 68.9664 91.7732 68.6327 91.7732 68.2358V62.9782L91.8809 61.4706ZM87.1618 64.9735V64.8405C87.1618 64.3169 87.223 63.8418 87.3455 63.4153C87.4721 62.9845 87.6516 62.615 87.8839 62.3067C88.1204 61.9984 88.4054 61.762 88.739 61.5973C89.0726 61.4283 89.4485 61.3439 89.8666 61.3439C90.2973 61.3439 90.6732 61.4199 90.9941 61.5719C91.3193 61.7197 91.5938 61.9372 91.8176 62.2244C92.0456 62.5073 92.2251 62.8494 92.356 63.2506C92.4869 63.6517 92.5777 64.1057 92.6284 64.6125V65.1952C92.5819 65.6978 92.4911 66.1496 92.356 66.5508C92.2251 66.952 92.0456 67.2941 91.8176 67.577C91.5938 67.8599 91.3193 68.0774 90.9941 68.2294C90.6689 68.3773 90.2889 68.4512 89.8539 68.4512C89.4443 68.4512 89.0726 68.3646 88.739 68.1914C88.4096 68.0183 88.1267 67.7755 87.8902 67.463C87.6537 67.1505 87.4721 66.7831 87.3455 66.3608C87.223 65.9343 87.1618 65.4718 87.1618 64.9735ZM88.3336 64.8405V64.9735C88.3336 65.3156 88.3674 65.6365 88.435 65.9364C88.5068 66.2362 88.6145 66.5001 88.758 66.7282C88.9058 66.9562 89.0938 67.1357 89.3218 67.2666C89.5498 67.3933 89.8222 67.4566 90.1389 67.4566C90.5275 67.4566 90.8484 67.3743 91.1018 67.2096C91.3552 67.0449 91.5558 66.8274 91.7036 66.5571C91.8556 66.2869 91.9738 65.9934 92.0583 65.6767V64.1501C92.0118 63.9178 91.94 63.694 91.8429 63.4786C91.75 63.259 91.6275 63.0648 91.4755 62.8958C91.3277 62.7227 91.144 62.5854 90.9244 62.4841C90.7048 62.3827 90.4472 62.3321 90.1516 62.3321C89.8307 62.3321 89.5541 62.3996 89.3218 62.5348C89.0938 62.6657 88.9058 62.8473 88.758 63.0795C88.6145 63.3076 88.5068 63.5736 88.435 63.8777C88.3674 64.1775 88.3336 64.4984 88.3336 64.8405Z" fill="#797979"/>
<rect x="124.83" y="46.8163" width="102.341" height="35.0162" rx="17.5081" fill="white"/>
<rect x="124.83" y="46.8163" width="102.341" height="35.0162" rx="17.5081" stroke="#ECECEC" stroke-width="1.2"/>
<path d="M151.139 65.3916H152.355C152.291 65.9744 152.125 66.4959 151.854 66.9562C151.584 67.4165 151.202 67.7818 150.708 68.0521C150.214 68.3181 149.597 68.4512 148.858 68.4512C148.318 68.4512 147.826 68.3498 147.382 68.1471C146.943 67.9444 146.565 67.6572 146.248 67.2856C145.932 66.9098 145.687 66.46 145.514 65.9364C145.345 65.4085 145.26 64.8215 145.26 64.1754V63.2569C145.26 62.6108 145.345 62.0259 145.514 61.5023C145.687 60.9744 145.934 60.5225 146.255 60.1467C146.58 59.7708 146.97 59.4816 147.427 59.2789C147.883 59.0762 148.396 58.9748 148.966 58.9748C149.663 58.9748 150.252 59.1057 150.733 59.3675C151.215 59.6294 151.588 59.9925 151.854 60.4571C152.125 60.9174 152.291 61.4516 152.355 62.0597H151.139C151.079 61.6289 150.97 61.2594 150.809 60.9512C150.649 60.6387 150.421 60.3979 150.125 60.229C149.829 60.0601 149.443 59.9756 148.966 59.9756C148.556 59.9756 148.195 60.0538 147.883 60.21C147.574 60.3663 147.315 60.588 147.103 60.8751C146.897 61.1623 146.74 61.5065 146.635 61.9077C146.529 62.3088 146.476 62.7544 146.476 63.2442V64.1754C146.476 64.6273 146.523 65.0517 146.616 65.4486C146.713 65.8456 146.859 66.194 147.053 66.4938C147.247 66.7936 147.494 67.0301 147.794 67.2033C148.094 67.3722 148.448 67.4566 148.858 67.4566C149.378 67.4566 149.791 67.3743 150.1 67.2096C150.408 67.0449 150.64 66.8084 150.796 66.5001C150.957 66.1919 151.071 65.8224 151.139 65.3916ZM153.533 64.9735V64.8278C153.533 64.3338 153.605 63.8756 153.748 63.4533C153.892 63.0267 154.099 62.6572 154.369 62.3447C154.639 62.028 154.967 61.7831 155.351 61.6099C155.735 61.4326 156.166 61.3439 156.643 61.3439C157.125 61.3439 157.557 61.4326 157.942 61.6099C158.33 61.7831 158.66 62.028 158.93 62.3447C159.204 62.6572 159.413 63.0267 159.557 63.4533C159.701 63.8756 159.772 64.3338 159.772 64.8278V64.9735C159.772 65.4676 159.701 65.9258 159.557 66.3481C159.413 66.7704 159.204 67.1399 158.93 67.4566C158.66 67.7691 158.332 68.0141 157.948 68.1914C157.568 68.3646 157.137 68.4512 156.656 68.4512C156.174 68.4512 155.742 68.3646 155.357 68.1914C154.973 68.0141 154.644 67.7691 154.369 67.4566C154.099 67.1399 153.892 66.7704 153.748 66.3481C153.605 65.9258 153.533 65.4676 153.533 64.9735ZM154.705 64.8278V64.9735C154.705 65.3156 154.745 65.6387 154.825 65.9427C154.905 66.2425 155.026 66.5086 155.186 66.7408C155.351 66.9731 155.556 67.1568 155.801 67.2919C156.046 67.4229 156.331 67.4883 156.656 67.4883C156.977 67.4883 157.258 67.4229 157.498 67.2919C157.743 67.1568 157.946 66.9731 158.106 66.7408C158.267 66.5086 158.387 66.2425 158.467 65.9427C158.552 65.6387 158.594 65.3156 158.594 64.9735V64.8278C158.594 64.49 158.552 64.1712 158.467 63.8713C158.387 63.5673 158.265 63.2991 158.1 63.0669C157.94 62.8304 157.737 62.6446 157.492 62.5094C157.251 62.3743 156.968 62.3067 156.643 62.3067C156.322 62.3067 156.039 62.3743 155.794 62.5094C155.554 62.6446 155.351 62.8304 155.186 63.0669C155.026 63.2991 154.905 63.5673 154.825 63.8713C154.745 64.1712 154.705 64.49 154.705 64.8278ZM162.408 62.8325V68.3245H161.229V61.4706H162.344L162.408 62.8325ZM162.167 64.6378L161.622 64.6188C161.626 64.1501 161.688 63.7172 161.806 63.3202C161.924 62.9191 162.099 62.5707 162.332 62.2751C162.564 61.9794 162.853 61.7514 163.199 61.5909C163.546 61.4262 163.947 61.3439 164.403 61.3439C164.724 61.3439 165.019 61.3903 165.29 61.4832C165.56 61.5719 165.794 61.7134 165.993 61.9077C166.191 62.1019 166.345 62.3511 166.455 62.6551C166.565 62.9592 166.62 63.3266 166.62 63.7573V68.3245H165.448V63.8143C165.448 63.4554 165.387 63.1682 165.264 62.9528C165.146 62.7375 164.977 62.5812 164.758 62.4841C164.538 62.3827 164.28 62.3321 163.985 62.3321C163.639 62.3321 163.349 62.3933 163.117 62.5158C162.885 62.6382 162.699 62.8071 162.56 63.0225C162.42 63.2379 162.319 63.4849 162.255 63.7637C162.196 64.0381 162.167 64.3295 162.167 64.6378ZM166.607 63.9917L165.822 64.2324C165.826 63.8566 165.887 63.4955 166.005 63.1492C166.128 62.8029 166.303 62.4946 166.531 62.2244C166.764 61.9541 167.049 61.7408 167.386 61.5846C167.724 61.4241 168.111 61.3439 168.546 61.3439C168.913 61.3439 169.238 61.3925 169.521 61.4896C169.808 61.5867 170.049 61.7366 170.243 61.9393C170.442 62.1378 170.592 62.3933 170.693 62.7058C170.794 63.0183 170.845 63.3899 170.845 63.8207V68.3245H169.667V63.808C169.667 63.4237 169.606 63.126 169.483 62.9148C169.365 62.6995 169.196 62.5495 168.976 62.4651C168.761 62.3764 168.503 62.3321 168.204 62.3321C167.946 62.3321 167.718 62.3764 167.519 62.4651C167.321 62.5538 167.154 62.6762 167.019 62.8325C166.884 62.9845 166.78 63.1598 166.709 63.3582C166.641 63.5567 166.607 63.7679 166.607 63.9917ZM173.791 62.7881V70.9596H172.612V61.4706H173.689L173.791 62.7881ZM178.408 64.8405V64.9735C178.408 65.4718 178.349 65.9343 178.231 66.3608C178.113 66.7831 177.94 67.1505 177.712 67.463C177.488 67.7755 177.211 68.0183 176.882 68.1914C176.552 68.3646 176.174 68.4512 175.748 68.4512C175.313 68.4512 174.929 68.3794 174.595 68.2358C174.261 68.0922 173.978 67.8832 173.746 67.6087C173.514 67.3342 173.328 67.0048 173.189 66.6205C173.054 66.2362 172.961 65.8033 172.91 65.3219V64.6125C172.961 64.1057 173.056 63.6517 173.195 63.2506C173.334 62.8494 173.518 62.5073 173.746 62.2244C173.978 61.9372 174.259 61.7197 174.589 61.5719C174.918 61.4199 175.298 61.3439 175.729 61.3439C176.16 61.3439 176.542 61.4283 176.875 61.5973C177.209 61.762 177.49 61.9984 177.718 62.3067C177.946 62.615 178.117 62.9845 178.231 63.4153C178.349 63.8418 178.408 64.3169 178.408 64.8405ZM177.23 64.9735V64.8405C177.23 64.4984 177.194 64.1775 177.122 63.8777C177.051 63.5736 176.939 63.3076 176.787 63.0795C176.639 62.8473 176.449 62.6657 176.217 62.5348C175.984 62.3996 175.708 62.3321 175.387 62.3321C175.091 62.3321 174.834 62.3827 174.614 62.4841C174.399 62.5854 174.215 62.7227 174.063 62.8958C173.911 63.0648 173.786 63.259 173.689 63.4786C173.596 63.694 173.527 63.9178 173.48 64.1501V65.7907C173.565 66.0863 173.683 66.365 173.835 66.6268C173.987 66.8844 174.19 67.0935 174.443 67.2539C174.696 67.4102 175.015 67.4883 175.399 67.4883C175.716 67.4883 175.989 67.4229 176.217 67.2919C176.449 67.1568 176.639 66.9731 176.787 66.7408C176.939 66.5086 177.051 66.2425 177.122 65.9427C177.194 65.6387 177.23 65.3156 177.23 64.9735ZM181.177 58.5947V68.3245H179.998V58.5947H181.177ZM185.902 68.4512C185.425 68.4512 184.992 68.3709 184.603 68.2104C184.219 68.0457 183.888 67.8156 183.609 67.52C183.334 67.2244 183.123 66.8739 182.976 66.4685C182.828 66.0631 182.754 65.6196 182.754 65.1382V64.8722C182.754 64.3148 182.836 63.8186 183.001 63.3836C183.166 62.9444 183.389 62.5728 183.672 62.2687C183.955 61.9647 184.276 61.7345 184.635 61.5783C184.994 61.422 185.366 61.3439 185.75 61.3439C186.24 61.3439 186.662 61.4283 187.017 61.5973C187.376 61.7662 187.669 62.0027 187.897 62.3067C188.125 62.6066 188.294 62.9613 188.404 63.3709C188.514 63.7763 188.569 64.2197 188.569 64.7012V65.2269H183.451V64.2704H187.397V64.1817C187.38 63.8777 187.317 63.5821 187.207 63.2949C187.101 63.0077 186.932 62.7713 186.7 62.5854C186.468 62.3996 186.151 62.3067 185.75 62.3067C185.484 62.3067 185.239 62.3637 185.015 62.4778C184.791 62.5876 184.599 62.7523 184.439 62.9718C184.278 63.1914 184.154 63.4596 184.065 63.7763C183.976 64.093 183.932 64.4583 183.932 64.8722V65.1382C183.932 65.4634 183.976 65.7696 184.065 66.0567C184.158 66.3397 184.291 66.5888 184.464 66.8042C184.641 67.0196 184.855 67.1885 185.104 67.3109C185.357 67.4334 185.644 67.4946 185.965 67.4946C186.379 67.4946 186.73 67.4102 187.017 67.2413C187.304 67.0724 187.555 66.8464 187.771 66.5635L188.48 67.1273C188.332 67.3511 188.144 67.5643 187.916 67.767C187.688 67.9697 187.408 68.1344 187.074 68.2611C186.745 68.3878 186.354 68.4512 185.902 68.4512ZM192.807 61.4706V62.3701H189.101V61.4706H192.807ZM190.355 59.8046H191.527V66.6268C191.527 66.8591 191.563 67.0343 191.635 67.1526C191.707 67.2708 191.799 67.349 191.913 67.387C192.027 67.425 192.15 67.444 192.281 67.444C192.378 67.444 192.479 67.4355 192.585 67.4186C192.695 67.3975 192.777 67.3806 192.832 67.368L192.838 68.3245C192.745 68.354 192.623 68.3815 192.471 68.4068C192.323 68.4364 192.144 68.4512 191.932 68.4512C191.645 68.4512 191.381 68.3941 191.141 68.2801C190.9 68.1661 190.708 67.9761 190.564 67.71C190.425 67.4398 190.355 67.0766 190.355 66.6205V59.8046ZM197.025 68.4512C196.548 68.4512 196.115 68.3709 195.727 68.2104C195.342 68.0457 195.011 67.8156 194.732 67.52C194.458 67.2244 194.247 66.8739 194.099 66.4685C193.951 66.0631 193.877 65.6196 193.877 65.1382V64.8722C193.877 64.3148 193.959 63.8186 194.124 63.3836C194.289 62.9444 194.513 62.5728 194.796 62.2687C195.079 61.9647 195.399 61.7345 195.758 61.5783C196.117 61.422 196.489 61.3439 196.873 61.3439C197.363 61.3439 197.785 61.4283 198.14 61.5973C198.499 61.7662 198.793 62.0027 199.021 62.3067C199.249 62.6066 199.418 62.9613 199.527 63.3709C199.637 63.7763 199.692 64.2197 199.692 64.7012V65.2269H194.574V64.2704H198.52V64.1817C198.503 63.8777 198.44 63.5821 198.33 63.2949C198.225 63.0077 198.056 62.7713 197.823 62.5854C197.591 62.3996 197.274 62.3067 196.873 62.3067C196.607 62.3067 196.362 62.3637 196.139 62.4778C195.915 62.5876 195.723 62.7523 195.562 62.9718C195.402 63.1914 195.277 63.4596 195.188 63.7763C195.1 64.093 195.055 64.4583 195.055 64.8722V65.1382C195.055 65.4634 195.1 65.7696 195.188 66.0567C195.281 66.3397 195.414 66.5888 195.587 66.8042C195.765 67.0196 195.978 67.1885 196.227 67.3109C196.481 67.4334 196.768 67.4946 197.089 67.4946C197.503 67.4946 197.853 67.4102 198.14 67.2413C198.427 67.0724 198.679 66.8464 198.894 66.5635L199.603 67.1273C199.456 67.3511 199.268 67.5643 199.04 67.767C198.812 67.9697 198.531 68.1344 198.197 68.2611C197.868 68.3878 197.477 68.4512 197.025 68.4512ZM205.38 66.9942V58.5947H206.559V68.3245H205.482L205.38 66.9942ZM200.769 64.9735V64.8405C200.769 64.3169 200.832 63.8418 200.959 63.4153C201.09 62.9845 201.274 62.615 201.51 62.3067C201.751 61.9984 202.036 61.762 202.365 61.5973C202.699 61.4283 203.071 61.3439 203.48 61.3439C203.911 61.3439 204.287 61.4199 204.608 61.5719C204.933 61.7197 205.207 61.9372 205.431 62.2244C205.659 62.5073 205.839 62.8494 205.97 63.2506C206.101 63.6517 206.191 64.1057 206.242 64.6125V65.1952C206.196 65.6978 206.105 66.1496 205.97 66.5508C205.839 66.952 205.659 67.2941 205.431 67.577C205.207 67.8599 204.933 68.0774 204.608 68.2294C204.283 68.3773 203.902 68.4512 203.467 68.4512C203.066 68.4512 202.699 68.3646 202.365 68.1914C202.036 68.0183 201.751 67.7755 201.51 67.463C201.274 67.1505 201.09 66.7831 200.959 66.3608C200.832 65.9343 200.769 65.4718 200.769 64.9735ZM201.947 64.8405V64.9735C201.947 65.3156 201.981 65.6365 202.049 65.9364C202.12 66.2362 202.23 66.5001 202.378 66.7282C202.526 66.9562 202.714 67.1357 202.942 67.2666C203.17 67.3933 203.442 67.4566 203.759 67.4566C204.147 67.4566 204.466 67.3743 204.715 67.2096C204.969 67.0449 205.171 66.8274 205.323 66.5571C205.476 66.2869 205.594 65.9934 205.678 65.6767V64.1501C205.628 63.9178 205.554 63.694 205.457 63.4786C205.364 63.259 205.241 63.0648 205.089 62.8958C204.941 62.7227 204.758 62.5854 204.538 62.4841C204.323 62.3827 204.067 62.3321 203.772 62.3321C203.451 62.3321 203.174 62.3996 202.942 62.5348C202.714 62.6657 202.526 62.8473 202.378 63.0795C202.23 63.3076 202.12 63.5736 202.049 63.8777C201.981 64.1775 201.947 64.4984 201.947 64.8405Z" fill="#797979"/>
<rect x="238.37" y="46.8163" width="96.3405" height="35.0162" rx="17.5081" fill="white"/>
<rect x="238.37" y="46.8163" width="96.3405" height="35.0162" rx="17.5081" stroke="#ECECEC" stroke-width="1.2"/>
<path d="M264.679 65.3916H265.895C265.832 65.9744 265.665 66.4959 265.395 66.9562C265.125 67.4165 264.742 67.7818 264.248 68.0521C263.754 68.3181 263.138 68.4512 262.399 68.4512C261.858 68.4512 261.366 68.3498 260.923 68.1471C260.484 67.9444 260.106 67.6572 259.789 67.2856C259.472 66.9098 259.227 66.46 259.054 65.9364C258.885 65.4085 258.801 64.8215 258.801 64.1754V63.2569C258.801 62.6108 258.885 62.0259 259.054 61.5023C259.227 60.9744 259.474 60.5225 259.795 60.1467C260.12 59.7708 260.511 59.4816 260.967 59.2789C261.423 59.0762 261.936 58.9748 262.506 58.9748C263.203 58.9748 263.792 59.1057 264.274 59.3675C264.755 59.6294 265.129 59.9925 265.395 60.4571C265.665 60.9174 265.832 61.4516 265.895 62.0597H264.679C264.62 61.6289 264.51 61.2594 264.35 60.9512C264.189 60.6387 263.961 60.3979 263.666 60.229C263.37 60.0601 262.984 59.9756 262.506 59.9756C262.097 59.9756 261.736 60.0538 261.423 60.21C261.115 60.3663 260.855 60.588 260.644 60.8751C260.437 61.1623 260.281 61.5065 260.175 61.9077C260.07 62.3088 260.017 62.7544 260.017 63.2442V64.1754C260.017 64.6273 260.063 65.0517 260.156 65.4486C260.253 65.8456 260.399 66.194 260.593 66.4938C260.788 66.7936 261.035 67.0301 261.334 67.2033C261.634 67.3722 261.989 67.4566 262.399 67.4566C262.918 67.4566 263.332 67.3743 263.64 67.2096C263.948 67.0449 264.181 66.8084 264.337 66.5001C264.497 66.1919 264.611 65.8224 264.679 65.3916ZM271.425 67.1526V63.6243C271.425 63.354 271.37 63.1196 271.261 62.9212C271.155 62.7185 270.994 62.5622 270.779 62.4524C270.564 62.3426 270.298 62.2877 269.981 62.2877C269.685 62.2877 269.426 62.3384 269.202 62.4398C268.982 62.5411 268.809 62.6741 268.682 62.8388C268.56 63.0035 268.499 63.1809 268.499 63.3709H267.327C267.327 63.126 267.39 62.8832 267.517 62.6425C267.644 62.4017 267.825 62.1843 268.062 61.99C268.302 61.7915 268.59 61.6353 268.923 61.5213C269.261 61.403 269.637 61.3439 270.051 61.3439C270.549 61.3439 270.988 61.4283 271.368 61.5973C271.753 61.7662 272.052 62.0217 272.268 62.3637C272.487 62.7016 272.597 63.126 272.597 63.637V66.8295C272.597 67.0576 272.616 67.3004 272.654 67.558C272.696 67.8156 272.758 68.0373 272.838 68.2231V68.3245H271.615C271.556 68.1893 271.51 68.0099 271.476 67.786C271.442 67.558 271.425 67.3468 271.425 67.1526ZM271.628 64.1691L271.641 64.9925H270.456C270.122 64.9925 269.825 65.02 269.563 65.0749C269.301 65.1256 269.081 65.2037 268.904 65.3093C268.727 65.4148 268.592 65.5479 268.499 65.7083C268.406 65.8646 268.359 66.0483 268.359 66.2594C268.359 66.4748 268.408 66.6712 268.505 66.8485C268.602 67.0259 268.748 67.1674 268.942 67.2729C269.141 67.3743 269.383 67.425 269.671 67.425C270.03 67.425 270.346 67.349 270.621 67.1969C270.895 67.0449 271.113 66.8591 271.273 66.6395C271.438 66.4199 271.527 66.2066 271.539 65.9997L272.04 66.5635C272.01 66.7408 271.93 66.9372 271.799 67.1526C271.668 67.368 271.493 67.5749 271.273 67.7734C271.058 67.9676 270.8 68.1302 270.5 68.2611C270.205 68.3878 269.871 68.4512 269.5 68.4512C269.035 68.4512 268.628 68.3604 268.277 68.1788C267.931 67.9972 267.66 67.7544 267.466 67.4503C267.276 67.142 267.181 66.7979 267.181 66.4178C267.181 66.0504 267.253 65.7273 267.397 65.4486C267.54 65.1657 267.747 64.9313 268.017 64.7455C268.288 64.5555 268.613 64.4119 268.993 64.3148C269.373 64.2176 269.797 64.1691 270.266 64.1691H271.628ZM275.612 62.9338V68.3245H274.44V61.4706H275.549L275.612 62.9338ZM275.334 64.6378L274.846 64.6188C274.85 64.1501 274.92 63.7172 275.055 63.3202C275.19 62.9191 275.38 62.5707 275.625 62.2751C275.87 61.9794 276.161 61.7514 276.499 61.5909C276.841 61.4262 277.219 61.3439 277.633 61.3439C277.971 61.3439 278.275 61.3903 278.545 61.4832C278.815 61.5719 279.046 61.7155 279.236 61.914C279.43 62.1125 279.578 62.3701 279.679 62.6868C279.78 62.9993 279.831 63.3815 279.831 63.8333V68.3245H278.653V63.8207C278.653 63.4617 278.6 63.1745 278.494 62.9592C278.389 62.7396 278.235 62.5812 278.032 62.4841C277.829 62.3827 277.58 62.3321 277.285 62.3321C276.993 62.3321 276.727 62.3933 276.486 62.5158C276.25 62.6382 276.045 62.8071 275.872 63.0225C275.703 63.2379 275.57 63.4849 275.473 63.7637C275.38 64.0381 275.334 64.3295 275.334 64.6378ZM284.354 67.4883C284.633 67.4883 284.89 67.4313 285.127 67.3173C285.363 67.2033 285.557 67.047 285.709 66.8485C285.861 66.6458 285.948 66.4157 285.969 66.1581H287.084C287.063 66.5635 286.926 66.9414 286.672 67.2919C286.423 67.6382 286.096 67.9191 285.69 68.1344C285.285 68.3456 284.84 68.4512 284.354 68.4512C283.839 68.4512 283.389 68.3604 283.005 68.1788C282.625 67.9972 282.308 67.748 282.054 67.4313C281.805 67.1146 281.617 66.7514 281.491 66.3418C281.368 65.9279 281.307 65.4908 281.307 65.0305V64.7645C281.307 64.3042 281.368 63.8692 281.491 63.4596C281.617 63.0457 281.805 62.6805 282.054 62.3637C282.308 62.047 282.625 61.7979 283.005 61.6163C283.389 61.4347 283.839 61.3439 284.354 61.3439C284.89 61.3439 285.359 61.4537 285.76 61.6733C286.161 61.8887 286.476 62.1843 286.704 62.5601C286.936 62.9317 287.063 63.354 287.084 63.827H285.969C285.948 63.5441 285.868 63.2886 285.728 63.0605C285.593 62.8325 285.408 62.6509 285.171 62.5158C284.939 62.3764 284.666 62.3067 284.354 62.3067C283.995 62.3067 283.693 62.3785 283.448 62.5221C283.207 62.6615 283.015 62.8515 282.872 63.0922C282.732 63.3287 282.631 63.5926 282.568 63.884C282.508 64.1712 282.479 64.4647 282.479 64.7645V65.0305C282.479 65.3304 282.508 65.626 282.568 65.9174C282.627 66.2088 282.726 66.4727 282.865 66.7092C283.009 66.9457 283.201 67.1357 283.442 67.2793C283.687 67.4186 283.991 67.4883 284.354 67.4883ZM291.246 68.4512C290.769 68.4512 290.336 68.3709 289.947 68.2104C289.563 68.0457 289.231 67.8156 288.953 67.52C288.678 67.2244 288.467 66.8739 288.319 66.4685C288.171 66.0631 288.098 65.6196 288.098 65.1382V64.8722C288.098 64.3148 288.18 63.8186 288.345 63.3836C288.509 62.9444 288.733 62.5728 289.016 62.2687C289.299 61.9647 289.62 61.7345 289.979 61.5783C290.338 61.422 290.709 61.3439 291.094 61.3439C291.584 61.3439 292.006 61.4283 292.361 61.5973C292.72 61.7662 293.013 62.0027 293.241 62.3067C293.469 62.6066 293.638 62.9613 293.748 63.3709C293.858 63.7763 293.913 64.2197 293.913 64.7012V65.2269H288.794V64.2704H292.741V64.1817C292.724 63.8777 292.66 63.5821 292.551 63.2949C292.445 63.0077 292.276 62.7713 292.044 62.5854C291.812 62.3996 291.495 62.3067 291.094 62.3067C290.828 62.3067 290.583 62.3637 290.359 62.4778C290.135 62.5876 289.943 62.7523 289.783 62.9718C289.622 63.1914 289.497 63.4596 289.409 63.7763C289.32 64.093 289.276 64.4583 289.276 64.8722V65.1382C289.276 65.4634 289.32 65.7696 289.409 66.0567C289.502 66.3397 289.635 66.5888 289.808 66.8042C289.985 67.0196 290.198 67.1885 290.448 67.3109C290.701 67.4334 290.988 67.4946 291.309 67.4946C291.723 67.4946 292.073 67.4102 292.361 67.2413C292.648 67.0724 292.899 66.8464 293.114 66.5635L293.824 67.1273C293.676 67.3511 293.488 67.5643 293.26 67.767C293.032 67.9697 292.751 68.1344 292.418 68.2611C292.088 68.3878 291.698 68.4512 291.246 68.4512ZM296.554 58.5947V68.3245H295.376V58.5947H296.554ZM299.709 58.5947V68.3245H298.53V58.5947H299.709ZM304.434 68.4512C303.957 68.4512 303.524 68.3709 303.136 68.2104C302.751 68.0457 302.42 67.8156 302.141 67.52C301.867 67.2244 301.655 66.8739 301.508 66.4685C301.36 66.0631 301.286 65.6196 301.286 65.1382V64.8722C301.286 64.3148 301.368 63.8186 301.533 63.3836C301.698 62.9444 301.921 62.5728 302.204 62.2687C302.487 61.9647 302.808 61.7345 303.167 61.5783C303.526 61.422 303.898 61.3439 304.282 61.3439C304.772 61.3439 305.194 61.4283 305.549 61.5973C305.908 61.7662 306.201 62.0027 306.429 62.3067C306.658 62.6066 306.826 62.9613 306.936 63.3709C307.046 63.7763 307.101 64.2197 307.101 64.7012V65.2269H301.983V64.2704H305.929V64.1817C305.912 63.8777 305.849 63.5821 305.739 63.2949C305.633 63.0077 305.465 62.7713 305.232 62.5854C305 62.3996 304.683 62.3067 304.282 62.3067C304.016 62.3067 303.771 62.3637 303.547 62.4778C303.323 62.5876 303.131 62.7523 302.971 62.9718C302.81 63.1914 302.686 63.4596 302.597 63.7763C302.508 64.093 302.464 64.4583 302.464 64.8722V65.1382C302.464 65.4634 302.508 65.7696 302.597 66.0567C302.69 66.3397 302.823 66.5888 302.996 66.8042C303.174 67.0196 303.387 67.1885 303.636 67.3109C303.889 67.4334 304.177 67.4946 304.497 67.4946C304.911 67.4946 305.262 67.4102 305.549 67.2413C305.836 67.0724 306.087 66.8464 306.303 66.5635L307.012 67.1273C306.864 67.3511 306.677 67.5643 306.448 67.767C306.22 67.9697 305.94 68.1344 305.606 68.2611C305.277 68.3878 304.886 68.4512 304.434 68.4512ZM312.789 66.9942V58.5947H313.967V68.3245H312.891L312.789 66.9942ZM308.178 64.9735V64.8405C308.178 64.3169 308.241 63.8418 308.368 63.4153C308.499 62.9845 308.682 62.615 308.919 62.3067C309.16 61.9984 309.445 61.762 309.774 61.5973C310.108 61.4283 310.479 61.3439 310.889 61.3439C311.32 61.3439 311.696 61.4199 312.016 61.5719C312.342 61.7197 312.616 61.9372 312.84 62.2244C313.068 62.5073 313.247 62.8494 313.378 63.2506C313.509 63.6517 313.6 64.1057 313.651 64.6125V65.1952C313.604 65.6978 313.514 66.1496 313.378 66.5508C313.247 66.952 313.068 67.2941 312.84 67.577C312.616 67.8599 312.342 68.0774 312.016 68.2294C311.691 68.3773 311.311 68.4512 310.876 68.4512C310.475 68.4512 310.108 68.3646 309.774 68.1914C309.445 68.0183 309.16 67.7755 308.919 67.463C308.682 67.1505 308.499 66.7831 308.368 66.3608C308.241 65.9343 308.178 65.4718 308.178 64.9735ZM309.356 64.8405V64.9735C309.356 65.3156 309.39 65.6365 309.457 65.9364C309.529 66.2362 309.639 66.5001 309.787 66.7282C309.935 66.9562 310.122 67.1357 310.35 67.2666C310.579 67.3933 310.851 67.4566 311.168 67.4566C311.556 67.4566 311.875 67.3743 312.124 67.2096C312.378 67.0449 312.58 66.8274 312.732 66.5571C312.884 66.2869 313.003 65.9934 313.087 65.6767V64.1501C313.036 63.9178 312.962 63.694 312.865 63.4786C312.772 63.259 312.65 63.0648 312.498 62.8958C312.35 62.7227 312.166 62.5854 311.947 62.4841C311.731 62.3827 311.476 62.3321 311.18 62.3321C310.859 62.3321 310.583 62.3996 310.35 62.5348C310.122 62.6657 309.935 62.8473 309.787 63.0795C309.639 63.3076 309.529 63.5736 309.457 63.8777C309.39 64.1775 309.356 64.4984 309.356 64.8405Z" fill="#797979"/>
</svg>
