<svg width="40" height="40" viewBox="0 0 40 40" fill="none" xmlns="http://www.w3.org/2000/svg">
<path d="M0 10C0 4.47715 4.47715 0 10 0H30C35.5228 0 40 4.47715 40 10V30C40 35.5228 35.5228 40 30 40H10C4.47715 40 0 35.5228 0 30V10Z" fill="#D74315"/>
<path d="M10 0.5H30C35.2467 0.5 39.5 4.7533 39.5 10V30C39.5 35.2467 35.2467 39.5 30 39.5H10C4.7533 39.5 0.5 35.2467 0.5 30V10C0.5 4.7533 4.7533 0.5 10 0.5Z" stroke="white" stroke-opacity="0.1"/>
<g clip-path="url(#clip0_14006_3583)">
<path d="M25 16.6667C23.1617 16.6667 21.6667 15.1717 21.6667 13.3333C21.6667 11.495 23.1617 10 25 10C26.8383 10 28.3333 11.495 28.3333 13.3333C28.3333 15.1717 26.8383 16.6667 25 16.6667ZM20 22.5C18.1617 22.5 16.6667 21.005 16.6667 19.1667C16.6667 17.3283 18.1617 15.8333 20 15.8333C21.8383 15.8333 23.3333 17.3283 23.3333 19.1667C23.3333 21.005 21.8383 22.5 20 22.5ZM15 16.6667C13.1617 16.6667 11.6667 15.1717 11.6667 13.3333C11.6667 11.495 13.1617 10 15 10C16.8383 10 18.3333 11.495 18.3333 13.3333C18.3333 15.1717 16.8383 16.6667 15 16.6667ZM25 28.3333V26.25C25 24.6417 23.6917 23.3333 22.0833 23.3333H17.9167C16.3083 23.3333 15 24.6417 15 26.25V28.3333H10V30H30V28.3333H25ZM15.9642 22.11C15.3592 21.2842 15 20.2675 15 19.1667C15 18.8825 15.0292 18.605 15.075 18.3333H12.9167C11.3058 18.3333 10 19.6392 10 21.25V23.3333H14.3842C14.8117 22.8167 15.3517 22.4 15.9642 22.11ZM27.0833 18.3333H24.925C24.9708 18.605 25 18.8825 25 19.1667C25 20.2675 24.6408 21.2833 24.0358 22.11C24.6475 22.4 25.1883 22.8175 25.6158 23.3333H30V21.25C30 19.6392 28.6942 18.3333 27.0833 18.3333Z" fill="white"/>
</g>
<defs>
<clipPath id="clip0_14006_3583">
<rect width="20" height="20" fill="white" transform="translate(10 10)"/>
</clipPath>
</defs>
</svg>
