<svg width="40" height="40" viewBox="0 0 40 40" fill="none" xmlns="http://www.w3.org/2000/svg">
<path d="M0 10C0 4.47715 4.47715 0 10 0H30C35.5228 0 40 4.47715 40 10V30C40 35.5228 35.5228 40 30 40H10C4.47715 40 0 35.5228 0 30V10Z" fill="#D74315"/>
<path d="M10 0.5H30C35.2467 0.5 39.5 4.7533 39.5 10V30C39.5 35.2467 35.2467 39.5 30 39.5H10C4.7533 39.5 0.5 35.2467 0.5 30V10C0.5 4.7533 4.7533 0.5 10 0.5Z" stroke="white" stroke-opacity="0.1"/>
<g clip-path="url(#clip0_14006_3569)">
<path d="M11.6667 19.1667H20.8334C21.7538 19.1667 22.5 18.4205 22.5 17.5V11.6667C22.5 10.7462 21.7538 10 20.8333 10H11.6667C10.7462 10 10 10.7462 10 11.6667V17.5C10 18.4205 10.7462 19.1667 11.6667 19.1667Z" fill="white"/>
<path d="M29.7151 10.735C29.4054 10.2755 28.8875 10.0001 28.3334 10H25.8334C24.913 10 24.1667 10.7462 24.1667 11.6667V17.5C24.1667 18.4205 24.9129 19.1667 25.8334 19.1667H28.3334C29.2539 19.1667 30.0001 18.4205 30.0001 17.5V11.6667C30.0007 11.3346 29.9014 11.01 29.7151 10.735Z" fill="white"/>
<path d="M15.0983 21.1185C14.8234 20.9322 14.4988 20.833 14.1666 20.8335H11.6666C10.7462 20.8335 10 21.5797 10 22.5002V28.3335C10 29.254 10.7462 30.0002 11.6667 30.0002H14.1667C15.0871 30.0002 15.8334 29.254 15.8334 28.3335V22.5002C15.8332 21.9461 15.5578 21.4283 15.0983 21.1185Z" fill="white"/>
<path d="M29.265 21.1185C28.99 20.9322 28.6654 20.833 28.3333 20.8335H19.1667C18.2462 20.8335 17.5 21.5797 17.5 22.5002V28.3335C17.5 29.254 18.2462 30.0002 19.1667 30.0002H28.3334C29.2538 30.0002 30 29.254 30 28.3335V22.5002C29.9999 21.9461 29.7245 21.4283 29.265 21.1185Z" fill="white"/>
</g>
<defs>
<clipPath id="clip0_14006_3569">
<rect width="20" height="20" fill="white" transform="translate(10 10)"/>
</clipPath>
</defs>
</svg>
