<svg width="40" height="40" viewBox="0 0 40 40" fill="none" xmlns="http://www.w3.org/2000/svg">
<path d="M0 10C0 4.47715 4.47715 0 10 0H30C35.5228 0 40 4.47715 40 10V30C40 35.5228 35.5228 40 30 40H10C4.47715 40 0 35.5228 0 30V10Z" fill="#D74315"/>
<path d="M10 0.5H30C35.2467 0.5 39.5 4.7533 39.5 10V30C39.5 35.2467 35.2467 39.5 30 39.5H10C4.7533 39.5 0.5 35.2467 0.5 30V10C0.5 4.7533 4.7533 0.5 10 0.5Z" stroke="white" stroke-opacity="0.1"/>
<g clip-path="url(#clip0_14006_3578)">
<path d="M8 16V15C8 12.243 10.243 10 13 10H14V9C14 8.448 14.447 8 15 8C15.553 8 16 8.448 16 9V10H24V9C24 8.448 24.447 8 25 8C25.553 8 26 8.448 26 9V10H27C29.757 10 32 12.243 32 15V16H8ZM32 18V27C32 29.757 29.757 32 27 32H13C10.243 32 8 29.757 8 27V18H32ZM23.447 26C23.088 26 22.762 26.195 22.581 26.505C22.063 27.397 21.104 28 20 28C19.433 28 18.893 27.829 18.425 27.539L18.799 27.165C19.229 26.735 18.924 26 18.316 26H15.621C15.278 26 15 26.278 15 26.62V29.315C15 29.923 15.735 30.228 16.165 29.798L16.981 28.982C17.838 29.63 18.895 30 19.999 30C21.833 30 23.44 29.007 24.31 27.53C24.708 26.855 24.231 26 23.447 26ZM25 20.684C25 20.076 24.265 19.771 23.835 20.201L23.018 21.018C22.161 20.37 21.104 20 20 20C18.166 20 16.559 20.993 15.689 22.47C15.291 23.145 15.769 24 16.553 24C16.912 24 17.238 23.805 17.419 23.495C17.937 22.603 18.896 22 20 22C20.567 22 21.107 22.171 21.575 22.461L21.201 22.835C20.771 23.265 21.076 24.001 21.684 24.001H24.379C24.722 24.001 25 23.723 25 23.38V20.685V20.684Z" fill="white"/>
</g>
<defs>
<clipPath id="clip0_14006_3578">
<rect width="24" height="24" fill="white" transform="translate(8 8)"/>
</clipPath>
</defs>
</svg>
