<svg width="18" height="18" viewBox="0 0 18 18" fill="none" xmlns="http://www.w3.org/2000/svg">
<path d="M-1.90735e-05 4.68074C-1.90735e-05 10.4107 7.59748 18.0007 13.32 18.0007C14.5725 18.0007 15.7425 17.5282 16.605 16.6657L17.355 15.8032C18.225 14.9332 18.225 13.4632 17.3175 12.5557C17.295 12.5332 15.4875 11.1457 15.4875 11.1457C14.5875 10.2907 13.17 10.2907 12.2775 11.1457L11.1825 12.0232C8.78248 11.0032 7.07998 9.29324 5.98498 6.81074L6.85498 5.71574C7.71748 4.82324 7.71748 3.39824 6.85498 2.50574C6.85498 2.50574 5.46748 0.698242 5.44498 0.675742C4.53748 -0.231758 3.06748 -0.231758 2.15998 0.675742L1.37248 1.35824C0.472481 2.25074 -1.90735e-05 3.42074 -1.90735e-05 4.67324V4.68074Z" fill="#D74315"/>
</svg>
