<svg width="12" height="12" viewBox="0 0 12 12" fill="none" xmlns="http://www.w3.org/2000/svg">
<path d="M11.7188 2.16797C11.9062 2.35547 12 2.58008 12 2.8418C12 3.10352 11.9062 3.32812 11.7188 3.51562L5.40234 9.83203C5.22266 10.0117 5.00195 10.1016 4.74023 10.1016C4.47852 10.1016 4.25391 10.0117 4.06641 9.83203L0.28125 6.03516C0.09375 5.85547 0 5.63477 0 5.37305C0 5.11133 0.09375 4.88672 0.28125 4.69922C0.460938 4.51172 0.681641 4.41797 0.943359 4.41797C1.20508 4.41797 1.42969 4.51172 1.61719 4.69922L4.73438 7.81641L10.3828 2.16797C10.5703 1.98828 10.7949 1.89844 11.0566 1.89844C11.3184 1.89844 11.5391 1.98828 11.7188 2.16797Z" fill="white"/>
</svg>
