<svg width="34" height="34" viewBox="0 0 34 34" fill="none" xmlns="http://www.w3.org/2000/svg">
<g clip-path="url(#clip0_11823_4242)">
<path d="M8.5 0.943501V14.11L15.4094 16.2956C15.6572 16.3733 15.8735 16.5285 16.0265 16.7383C16.1795 16.9481 16.2611 17.2015 16.2594 17.4611V21.8567H21.8567C22.1785 21.8575 22.4869 21.9857 22.7145 22.2133C22.9421 22.4409 23.0703 22.7493 23.0711 23.0711V34H25.5V0.943501C25.5 0.693269 25.4006 0.453286 25.2236 0.276345C25.0467 0.0994048 24.8067 5.98309e-07 24.5565 5.98309e-07H9.44456C9.32057 -0.000139032 9.19776 0.0241623 9.08317 0.0715151C8.96858 0.118868 8.86444 0.188343 8.77672 0.275969C8.68899 0.363595 8.6194 0.467653 8.57192 0.582193C8.52444 0.696733 8.5 0.819509 8.5 0.943501ZM14.5711 14.5711H12.1444C11.9819 14.5759 11.8202 14.5481 11.6687 14.4892C11.5172 14.4304 11.3791 14.3418 11.2625 14.2286C11.1459 14.1154 11.0532 13.9799 10.9899 13.8302C10.9266 13.6806 10.894 13.5197 10.894 13.3572C10.894 13.1947 10.9266 13.0339 10.9899 12.8842C11.0532 12.7345 11.1459 12.5991 11.2625 12.4859C11.3791 12.3727 11.5172 12.284 11.6687 12.2252C11.8202 12.1664 11.9819 12.1385 12.1444 12.1433H14.5722C14.7346 12.1385 14.8964 12.1664 15.0478 12.2252C15.1993 12.284 15.3374 12.3727 15.454 12.4859C15.5706 12.5991 15.6633 12.7345 15.7266 12.8842C15.7899 13.0339 15.8225 13.1947 15.8225 13.3572C15.8225 13.5197 15.7899 13.6806 15.7266 13.8302C15.6633 13.9799 15.5706 14.1154 15.454 14.2286C15.3374 14.3418 15.1993 14.4304 15.0478 14.4892C14.8964 14.5481 14.7346 14.5759 14.5722 14.5711H14.5711ZM14.5711 9.71444H12.1444C11.8223 9.71444 11.5134 9.58649 11.2856 9.35874C11.0579 9.13099 10.9299 8.82209 10.9299 8.5C10.9299 8.17791 11.0579 7.86901 11.2856 7.64126C11.5134 7.41351 11.8223 7.28556 12.1444 7.28556H14.5722C14.8943 7.28556 15.2032 7.41351 15.4309 7.64126C15.6587 7.86901 15.7866 8.17791 15.7866 8.5C15.7866 8.82209 15.6587 9.13099 15.4309 9.35874C15.2032 9.58649 14.8943 9.71444 14.5722 9.71444H14.5711ZM14.5711 4.85669H12.1444C11.9819 4.86149 11.8202 4.83365 11.6687 4.77481C11.5172 4.71597 11.3791 4.62732 11.2625 4.51412C11.1459 4.40093 11.0532 4.26548 10.9899 4.11581C10.9266 3.96614 10.894 3.80529 10.894 3.64278C10.894 3.48028 10.9266 3.31942 10.9899 3.16975C11.0532 3.02008 11.1459 2.88464 11.2625 2.77144C11.3791 2.65824 11.5172 2.5696 11.6687 2.51075C11.8202 2.45191 11.9819 2.42407 12.1444 2.42888H14.5722C14.7346 2.42407 14.8964 2.45191 15.0478 2.51075C15.1993 2.5696 15.3374 2.65824 15.454 2.77144C15.5706 2.88464 15.6633 3.02008 15.7266 3.16975C15.7899 3.31942 15.8225 3.48028 15.8225 3.64278C15.8225 3.80529 15.7899 3.96614 15.7266 4.11581C15.6633 4.26548 15.5706 4.40093 15.454 4.51412C15.3374 4.62732 15.1993 4.71597 15.0478 4.77481C14.8964 4.83365 14.7346 4.86149 14.5722 4.85669H14.5711ZM21.8567 19.4289H19.4289C19.1068 19.4289 18.7979 19.3009 18.5701 19.0732C18.3424 18.8454 18.2144 18.5365 18.2144 18.2144C18.2144 17.8923 18.3424 17.5835 18.5701 17.3557C18.7979 17.128 19.1068 17 19.4289 17H21.8577C22.1798 17 22.4887 17.128 22.7165 17.3557C22.9442 17.5835 23.0722 17.8923 23.0722 18.2144C23.0722 18.5365 22.9442 18.8454 22.7165 19.0732C22.4887 19.3009 22.1798 19.4289 21.8577 19.4289H21.8567ZM21.8567 14.5711H19.4289C19.1131 14.5618 18.8135 14.4298 18.5934 14.2032C18.3734 13.9765 18.2504 13.6731 18.2504 13.3572C18.2504 13.0414 18.3734 12.7379 18.5934 12.5113C18.8135 12.2846 19.1131 12.1527 19.4289 12.1433H21.8577C22.0202 12.1385 22.1819 12.1664 22.3334 12.2252C22.4849 12.284 22.623 12.3727 22.7396 12.4859C22.8562 12.5991 22.9489 12.7345 23.0122 12.8842C23.0755 13.0339 23.1081 13.1947 23.1081 13.3572C23.1081 13.5197 23.0755 13.6806 23.0122 13.8302C22.9489 13.9799 22.8562 14.1154 22.7396 14.2286C22.623 14.3418 22.4849 14.4304 22.3334 14.4892C22.1819 14.5481 22.0202 14.5759 21.8577 14.5711H21.8567ZM21.8567 9.71444H19.4289C19.1068 9.71444 18.7979 9.58649 18.5701 9.35874C18.3424 9.13099 18.2144 8.82209 18.2144 8.5C18.2144 8.17791 18.3424 7.86901 18.5701 7.64126C18.7979 7.41351 19.1068 7.28556 19.4289 7.28556H21.8577C22.0172 7.28556 22.1751 7.31698 22.3225 7.37801C22.4698 7.43904 22.6037 7.52849 22.7165 7.64126C22.8293 7.75403 22.9187 7.88791 22.9797 8.03526C23.0408 8.1826 23.0722 8.34052 23.0722 8.5C23.0722 8.65948 23.0408 8.8174 22.9797 8.96475C22.9187 9.11209 22.8293 9.24597 22.7165 9.35874C22.6037 9.47151 22.4698 9.56096 22.3225 9.62199C22.1751 9.68303 22.0172 9.71444 21.8577 9.71444H21.8567ZM21.8567 4.85669H19.4289C19.1131 4.84735 18.8135 4.71536 18.5934 4.48873C18.3734 4.26209 18.2504 3.95865 18.2504 3.64278C18.2504 3.32691 18.3734 3.02347 18.5934 2.79684C18.8135 2.57021 19.1131 2.43822 19.4289 2.42888H21.8577C22.0202 2.42407 22.1819 2.45191 22.3334 2.51075C22.4849 2.5696 22.623 2.65824 22.7396 2.77144C22.8562 2.88464 22.9489 3.02008 23.0122 3.16975C23.0755 3.31942 23.1081 3.48028 23.1081 3.64278C23.1081 3.80529 23.0755 3.96614 23.0122 4.11581C22.9489 4.26548 22.8562 4.40093 22.7396 4.51412C22.623 4.62732 22.4849 4.71597 22.3334 4.77481C22.1819 4.83365 22.0202 4.86149 21.8577 4.85669H21.8567Z" fill="#D74315"/>
<path d="M6.92112 16.1621L-4.35347e-06 18.3498V27.0803C-0.0341452 28.0666 0.174171 29.0462 0.606683 29.9332C2.125 32.9443 5.95 33.806 6.92112 33.9898C7.89331 33.807 11.7056 32.9453 13.2239 29.9215C13.654 29.0507 13.8624 28.0872 13.8306 27.1165V18.3498L6.92112 16.1621ZM12.0094 22.9143L7.27387 27.636C7.16303 27.7513 7.03004 27.8431 6.88289 27.9057C6.73573 27.9684 6.57744 28.0007 6.4175 28.0007C6.25755 28.0007 6.09926 27.9684 5.9521 27.9057C5.80495 27.8431 5.67196 27.7513 5.56112 27.636L3.04937 25.136C2.93683 25.0237 2.84755 24.8903 2.78663 24.7434C2.72572 24.5965 2.69436 24.4391 2.69436 24.2801C2.69436 24.1211 2.72572 23.9637 2.78663 23.8168C2.84755 23.67 2.93683 23.5366 3.04937 23.4243C3.27864 23.1967 3.58857 23.069 3.91159 23.069C4.23461 23.069 4.54454 23.1967 4.77381 23.4243L6.42493 25.0637L10.2861 21.2015C10.5153 20.974 10.8253 20.8463 11.1483 20.8463C11.4713 20.8463 11.7812 20.974 12.0105 21.2015C12.1232 21.3139 12.2126 21.4473 12.2736 21.5943C12.3346 21.7412 12.366 21.8988 12.366 22.0579C12.366 22.217 12.3346 22.3746 12.2736 22.5215C12.2126 22.6685 12.1221 22.802 12.0094 22.9143ZM13.3577 34.0004V33.6168C14.1985 32.8906 14.8896 32.0075 15.3924 31.0169C16.0031 29.7979 16.3014 28.4463 16.2605 27.0835V24.286H20.6433V34.0004H13.3577ZM27.9289 10.6583V34.0004H34V10.6583C34 10.4081 33.9006 10.1681 33.7236 9.99119C33.5467 9.81425 33.3067 9.71484 33.0565 9.71484H28.8724C28.6221 9.71484 28.3822 9.81425 28.2052 9.99119C28.0283 10.1681 27.9289 10.4081 27.9289 10.6583ZM31.5711 30.3571H30.3567C30.041 30.3478 29.7413 30.2158 29.5213 29.9891C29.3012 29.7625 29.1782 29.4591 29.1782 29.1432C29.1782 28.8273 29.3012 28.5239 29.5213 28.2972C29.7413 28.0706 30.041 27.9386 30.3567 27.9293H31.5711C31.7336 27.9245 31.8953 27.9523 32.0468 28.0112C32.1983 28.07 32.3364 28.1586 32.453 28.2718C32.5696 28.385 32.6623 28.5205 32.7256 28.6702C32.7889 28.8198 32.8215 28.9807 32.8215 29.1432C32.8215 29.3057 32.7889 29.4665 32.7256 29.6162C32.6623 29.7659 32.5696 29.9013 32.453 30.0145C32.3364 30.1277 32.1983 30.2164 32.0468 30.2752C31.8953 30.3341 31.7336 30.3619 31.5711 30.3571ZM31.5711 25.5004H30.3567C30.0346 25.5004 29.7257 25.3725 29.4979 25.1447C29.2702 24.917 29.1422 24.6081 29.1422 24.286C29.1422 23.9639 29.2702 23.655 29.4979 23.4272C29.7257 23.1995 30.0346 23.0715 30.3567 23.0715H31.5711C31.8932 23.0715 32.2021 23.1995 32.4299 23.4272C32.6576 23.655 32.7856 23.9639 32.7856 24.286C32.7856 24.6081 32.6576 24.917 32.4299 25.1447C32.2021 25.3725 31.8932 25.5004 31.5711 25.5004ZM31.5711 20.6437H30.3567C30.0346 20.6437 29.7257 20.5158 29.4979 20.288C29.2702 20.0603 29.1422 19.7514 29.1422 19.4293C29.1422 19.1072 29.2702 18.7983 29.4979 18.5705C29.7257 18.3428 30.0346 18.2148 30.3567 18.2148H31.5711C31.7306 18.2148 31.8885 18.2463 32.0359 18.3073C32.1832 18.3683 32.3171 18.4578 32.4299 18.5705C32.5426 18.6833 32.6321 18.8172 32.6931 18.9645C32.7541 19.1119 32.7856 19.2698 32.7856 19.4293C32.7856 19.5888 32.7541 19.7467 32.6931 19.894C32.6321 20.0414 32.5426 20.1752 32.4299 20.288C32.3171 20.4008 32.1832 20.4902 32.0359 20.5513C31.8885 20.6123 31.7306 20.6437 31.5711 20.6437ZM31.5711 15.786H30.3567C30.0346 15.786 29.7257 15.658 29.4979 15.4303C29.2702 15.2025 29.1422 14.8936 29.1422 14.5715C29.1422 14.2494 29.2702 13.9405 29.4979 13.7128C29.7257 13.485 30.0346 13.3571 30.3567 13.3571H31.5711C31.7306 13.3571 31.8885 13.3885 32.0359 13.4495C32.1832 13.5106 32.3171 13.6 32.4299 13.7128C32.5426 13.8256 32.6321 13.9594 32.6931 14.1068C32.7541 14.2541 32.7856 14.412 32.7856 14.5715C32.7856 14.731 32.7541 14.8889 32.6931 15.0363C32.6321 15.1836 32.5426 15.3175 32.4299 15.4303C32.3171 15.543 32.1832 15.6325 32.0359 15.6935C31.8885 15.7546 31.7306 15.786 31.5711 15.786Z" fill="#D74315"/>
</g>
<defs>
<clipPath id="clip0_11823_4242">
<rect width="34" height="34" fill="white"/>
</clipPath>
</defs>
</svg>
