<svg width="34" height="34" viewBox="0 0 34 34" fill="none" xmlns="http://www.w3.org/2000/svg">
<g clip-path="url(#clip0_11823_4268)">
<path d="M4.62038 17.5498C5.21181 17.551 5.79673 17.4264 6.33639 17.1844C6.37169 17.1679 6.41012 17.159 6.44911 17.1586C6.48809 17.1581 6.52673 17.166 6.56242 17.1817C7.15869 17.4389 7.82291 17.5727 8.48366 17.5658C8.58351 17.5644 8.64175 17.4541 8.59391 17.3668C8.3251 16.8751 8.13048 16.3464 8.01635 15.7977C8.00285 15.7298 8.01313 15.6593 8.04547 15.5981C8.26041 15.1793 8.38244 14.7134 8.38244 14.2204C8.38244 12.3844 6.69762 10.8931 4.62038 10.8931C2.54313 10.8931 0.861087 12.3837 0.861087 14.2204C0.861087 14.4194 0.879807 14.6156 0.919327 14.8035C1.22994 16.3635 2.76847 17.5498 4.62038 17.5498ZM32.9468 32.6133H32.1425L32.7665 22.1522C32.7811 21.9092 32.7458 21.6658 32.6628 21.4369C32.5799 21.208 32.451 20.9985 32.2841 20.8212C32.1172 20.6439 31.9159 20.5026 31.6924 20.406C31.4689 20.3094 31.2281 20.2595 30.9846 20.2594H7.45267C6.42653 20.2594 5.60838 21.1261 5.67079 22.1522L6.29479 32.6133H1.05314C0.869257 32.6133 0.692903 32.6864 0.562877 32.8164C0.43285 32.9464 0.359802 33.1228 0.359802 33.3067C0.359802 33.4905 0.43285 33.6669 0.562877 33.7969C0.692903 33.927 0.869257 34 1.05314 34H32.9468C33.1307 34 33.307 33.927 33.437 33.7969C33.5671 33.6669 33.6401 33.4905 33.6401 33.3067C33.6401 33.1228 33.5671 32.9464 33.437 32.8164C33.307 32.6864 33.1307 32.6133 32.9468 32.6133ZM19.2186 24.5373C19.8264 24.5373 20.4092 24.7787 20.839 25.2085C21.2687 25.6382 21.5101 26.221 21.5101 26.8288C21.5101 27.4365 21.2687 28.0194 20.839 28.4491C20.4092 28.8789 19.8264 29.1203 19.2186 29.1203C18.6109 29.1203 18.0281 28.8789 17.5983 28.4491C17.1686 28.0194 16.9272 27.4365 16.9272 26.8288C16.9272 26.221 17.1686 25.6382 17.5983 25.2085C18.0281 24.7787 18.6109 24.5373 19.2186 24.5373ZM9.24842 18.8727H29.1889C28.7733 18.1554 28.1768 17.5595 27.459 17.1447C26.7412 16.7298 25.9272 16.5104 25.0982 16.5084H22.6992C23.9056 15.4961 24.8416 14.0609 25.3963 12.6257H27.3585C28.2529 12.6257 28.9809 11.8977 28.9809 11.0033V9.51956C28.9809 8.97182 28.7035 8.48648 28.2875 8.19528C27.8507 3.5707 23.9403 0 19.2186 0C14.497 0 10.5935 3.5707 10.1498 8.19528C9.73376 8.48648 9.45642 8.97182 9.45642 9.51956V11.0033C9.45642 11.8977 10.1844 12.6257 11.0788 12.6257H13.041C13.5957 14.0609 14.5317 15.4961 15.7381 16.5084H13.3391C11.6474 16.5084 10.0874 17.4236 9.24842 18.8727ZM12.7914 6.77393V6.78086C12.6666 7.13447 12.5765 7.5158 12.5071 7.89714H11.5711C12.1396 4.19471 15.3637 1.38668 19.2186 1.38668C23.0736 1.38668 26.2976 4.19471 26.8662 7.89714H25.944C25.3339 4.55524 22.5467 2.10775 19.2186 2.10775C16.2789 2.10775 13.7621 4.0283 12.7914 6.77393ZM15.537 14.3036C16.0085 14.4145 16.5701 14.5047 17.2218 14.5601C17.5061 15.2951 18.2341 15.8151 19.0938 15.8151C20.2032 15.8151 21.0976 14.9553 21.0976 13.8945C21.0976 12.8407 20.2032 11.9809 19.0938 11.9809C18.2618 11.9809 17.5546 12.4662 17.2496 13.1596C15.7311 13.0279 14.8367 12.6743 14.4901 12.5079C14.3791 12.2444 14.2751 11.9809 14.185 11.7174C13.9007 10.8646 13.7551 10.0396 13.7551 9.25609C13.7525 8.67877 13.8343 8.10416 13.9978 7.55047C14.5455 7.38407 15.9114 7.10673 17.6448 7.85554C18.1093 8.05661 18.5877 8.13981 19.073 8.13981C20.9589 8.13981 22.8656 6.86406 23.8086 6.12219C24.2814 6.89453 24.5708 7.76504 24.6544 8.66675C24.6752 8.86088 24.6822 9.05502 24.6822 9.25609C24.6822 10.0396 24.5366 10.8646 24.2523 11.7174C23.4827 14.0263 21.5829 16.5084 19.2186 16.5084C17.7626 16.5084 16.48 15.5655 15.537 14.3036Z" fill="#D74315"/>
</g>
<defs>
<clipPath id="clip0_11823_4268">
<rect width="34" height="34" fill="white"/>
</clipPath>
</defs>
</svg>
