<svg width="8" height="14" viewBox="0 0 8 14" fill="none" xmlns="http://www.w3.org/2000/svg">
<path d="M4.8858 7.71079C4.97952 7.61783 5.05392 7.50723 5.10469 7.38537C5.15546 7.26351 5.18159 7.1328 5.18159 7.00079C5.18159 6.86878 5.15546 6.73807 5.10469 6.61622C5.05392 6.49436 4.97952 6.38376 4.8858 6.29079L0.295796 1.71079C0.202068 1.61783 0.127673 1.50723 0.0769043 1.38537C0.0261359 1.26351 -1.90735e-06 1.1328 -1.90735e-06 1.00079C-1.90735e-06 0.868781 0.0261359 0.738075 0.0769043 0.616216C0.127673 0.494356 0.202068 0.383755 0.295796 0.290792C0.483159 0.104542 0.736611 0 1.0008 0C1.26498 0 1.51843 0.104542 1.7058 0.290792L6.2958 4.88079C6.8576 5.44329 7.17316 6.20579 7.17316 7.00079C7.17316 7.79579 6.8576 8.55829 6.2958 9.12079L1.7058 13.7108C1.51954 13.8955 1.26814 13.9997 1.0058 14.0008C0.87419 14.0016 0.743727 13.9763 0.621889 13.9266C0.500052 13.8768 0.389236 13.8035 0.295796 13.7108C0.202068 13.6178 0.127673 13.5072 0.0769043 13.3854C0.0261359 13.2635 -1.90735e-06 13.1328 -1.90735e-06 13.0008C-1.90735e-06 12.8688 0.0261359 12.7381 0.0769043 12.6162C0.127673 12.4944 0.202068 12.3838 0.295796 12.2908L4.8858 7.71079Z" fill="#D74315"/>
</svg>
