<svg width="30" height="30" viewBox="0 0 30 30" fill="none" xmlns="http://www.w3.org/2000/svg">
<path d="M30 15C30 6.71573 23.2843 0 15 0C6.71573 0 2.38419e-07 6.71573 2.38419e-07 15C2.38419e-07 23.2843 6.71573 30 15 30C23.2843 30 30 23.2843 30 15Z" fill="#F7F7F7"/>
<path d="M15.0012 9.52539H18.8989C20.5137 9.52539 21.5239 11.2738 20.7153 12.6707L18.7653 16.048L16.8153 19.4254C16.009 20.8246 13.9887 20.8246 13.1825 19.4254L11.2325 16.048L9.28248 12.6707C8.47857 11.2738 9.48639 9.52539 11.1012 9.52539L15.0012 9.52539Z" fill="#B4B4B5"/>
</svg>
