<svg width="30" height="30" viewBox="0 0 30 30" fill="none" xmlns="http://www.w3.org/2000/svg">
<path d="M30 15C30 6.71573 23.2843 0 15 0C6.71573 0 2.38419e-07 6.71573 2.38419e-07 15C2.38419e-07 23.2843 6.71573 30 15 30C23.2843 30 30 23.2843 30 15Z" fill="#D74315"/>
<g clip-path="url(#clip0_13024_973)">
<path d="M14.9988 20.4746H11.1011C9.48627 20.4746 8.47611 18.7262 9.28471 17.3293L11.2347 13.952L13.1847 10.5746C13.991 9.17539 16.0113 9.17539 16.8175 10.5746L18.7675 13.952L20.7175 17.3293C21.5214 18.7262 20.5136 20.4746 18.8988 20.4746H14.9988Z" fill="white"/>
</g>
<defs>
<clipPath id="clip0_13024_973">
<rect width="12" height="12" fill="white" transform="matrix(0 -1 1 0 9 21)"/>
</clipPath>
</defs>
</svg>
