<svg width="18" height="18" viewBox="0 0 18 18" fill="none" xmlns="http://www.w3.org/2000/svg">
<path d="M18 9C18 9.768 17.0565 10.401 16.8675 11.109C16.6725 11.841 17.166 12.861 16.7955 13.5015C16.419 14.1525 15.2865 14.2305 14.7585 14.7585C14.2305 15.2865 14.1525 16.419 13.5015 16.7955C12.861 17.166 11.841 16.6725 11.109 16.8675C10.401 17.0565 9.768 18 9 18C8.232 18 7.599 17.0565 6.891 16.8675C6.159 16.6725 5.139 17.166 4.4985 16.7955C3.8475 16.419 3.7695 15.2865 3.2415 14.7585C2.7135 14.2305 1.581 14.1525 1.2045 13.5015C0.834 12.861 1.3275 11.841 1.1325 11.109C0.9435 10.401 0 9.768 0 9C0 8.232 0.9435 7.599 1.1325 6.891C1.3275 6.159 0.834 5.139 1.2045 4.4985C1.581 3.8475 2.7135 3.7695 3.2415 3.2415C3.7695 2.7135 3.8475 1.581 4.4985 1.2045C5.139 0.834 6.159 1.3275 6.891 1.1325C7.599 0.9435 8.232 0 9 0C9.768 0 10.401 0.9435 11.109 1.1325C11.841 1.3275 12.861 0.834 13.5015 1.2045C14.1525 1.581 14.2305 2.7135 14.7585 3.2415C15.2865 3.7695 16.419 3.8475 16.7955 4.4985C17.166 5.139 16.6725 6.159 16.8675 6.891C17.0565 7.599 18 8.232 18 9Z" fill="#D74315"/>
<path d="M11.6011 6.31804L8.17514 9.74404L6.39914 7.96954C6.21392 7.78442 5.96276 7.68043 5.70089 7.68043C5.43902 7.68043 5.18787 7.78442 5.00264 7.96954C4.81752 8.15476 4.71353 8.40591 4.71353 8.66779C4.71353 8.92966 4.81752 9.18081 5.00264 9.36604L7.49414 11.8575C7.67443 12.0376 7.91882 12.1388 8.17364 12.1388C8.42846 12.1388 8.67286 12.0376 8.85314 11.8575L12.9961 7.71454C13.1813 7.52931 13.2853 7.27816 13.2853 7.01629C13.2853 6.75442 13.1813 6.50326 12.9961 6.31804C12.9046 6.22638 12.7958 6.15368 12.6762 6.10407C12.5565 6.05446 12.4282 6.02893 12.2986 6.02893C12.1691 6.02893 12.0408 6.05446 11.9211 6.10407C11.8014 6.15368 11.6927 6.22638 11.6011 6.31804Z" fill="white"/>
</svg>
