<svg width="20" height="20" viewBox="0 0 20 20" fill="none" xmlns="http://www.w3.org/2000/svg">
<path d="M10.0017 4.87175C9.32817 4.87083 8.66102 5.00285 8.03856 5.26026C7.4161 5.51766 6.85056 5.89538 6.37436 6.37177C5.89815 6.84816 5.52065 7.41385 5.26349 8.03641C5.00633 8.65897 4.87457 9.32617 4.87575 9.99975C4.87457 10.6733 5.00633 11.3405 5.26349 11.9631C5.52065 12.5857 5.89815 13.1513 6.37436 13.6277C6.85056 14.1041 7.4161 14.4818 8.03856 14.7392C8.66102 14.9966 9.32817 15.1287 10.0017 15.1278C10.6755 15.1289 11.3429 14.9971 11.9656 14.7398C12.5882 14.4825 13.154 14.1049 13.6304 13.6284C14.1069 13.152 14.4845 12.5862 14.7418 11.9636C14.9991 11.3409 15.1309 10.6735 15.1298 9.99975C15.1308 9.32612 14.9989 8.6589 14.7416 8.03633C14.4844 7.41377 14.1068 6.84809 13.6305 6.37171C13.1542 5.89534 12.5886 5.51763 11.9661 5.26024C11.3436 5.00285 10.6764 4.87083 10.0028 4.87175H10.0017ZM10.0017 13.3337C9.11835 13.3316 8.27177 12.9796 7.6473 12.3548C7.02283 11.7299 6.67133 10.8831 6.66975 9.99975C6.67054 9.11594 7.02192 8.26853 7.64678 7.64349C8.27164 7.01844 9.11894 6.66681 10.0028 6.66575C10.8864 6.66707 11.7334 7.01882 12.3581 7.64384C12.9827 8.26886 13.334 9.11611 13.3348 9.99975C13.3332 10.8833 12.9815 11.7303 12.3568 12.3551C11.7322 12.98 10.8853 13.3319 10.0017 13.3337ZM16.5338 4.66275C16.5338 5.32675 15.9987 5.85875 15.3387 5.85875C15.1022 5.85875 14.871 5.78861 14.6743 5.65719C14.4776 5.52577 14.3243 5.33898 14.2338 5.12044C14.1433 4.9019 14.1196 4.66142 14.1657 4.42942C14.2119 4.19742 14.3258 3.98431 14.4931 3.81705C14.6603 3.64979 14.8734 3.53588 15.1054 3.48973C15.3374 3.44358 15.5779 3.46727 15.7964 3.55779C16.015 3.64831 16.2018 3.80161 16.3332 3.99829C16.4646 4.19497 16.5338 4.4262 16.5338 4.66275ZM19.9298 5.87575C19.8538 4.27375 19.4878 2.85575 18.3148 1.68575C17.1448 0.51575 15.7268 0.14975 14.1248 0.06975C12.4748 -0.02325 7.52475 -0.02325 5.87475 0.06975C4.27775 0.14575 2.85875 0.51175 1.68475 1.68075C0.51175 2.85075 0.15075 4.26975 0.06975 5.87075C-0.02325 7.52275 -0.02325 12.4718 0.06975 14.1237C0.14575 15.7257 0.51175 17.1437 1.68475 18.3137C2.85875 19.4837 4.27275 19.8488 5.87475 19.9298C7.52475 20.0228 12.4748 20.0228 14.1248 19.9298C15.7268 19.8538 17.1448 19.4877 18.3148 18.3137C19.4827 17.1437 19.8488 15.7257 19.9298 14.1237C20.0228 12.4718 20.0228 7.52775 19.9298 5.87575ZM17.7968 15.8958C17.627 16.3257 17.3708 16.7162 17.044 17.043C16.7172 17.3698 16.3267 17.626 15.8968 17.7957C14.5798 18.3188 11.4567 18.1978 10.0017 18.1978C8.54775 18.1978 5.41975 18.3138 4.10775 17.7968C3.67764 17.6268 3.28704 17.3703 2.96019 17.0431C2.63335 16.7159 2.37724 16.325 2.20775 15.8948C1.68475 14.5788 1.80575 11.4548 1.80575 9.99975C1.80575 8.54475 1.68975 5.41675 2.20675 4.10475C2.37635 3.67436 2.63262 3.28343 2.95964 2.95624C3.28666 2.62905 3.67745 2.37258 4.10775 2.20275C5.42375 1.68075 8.54775 1.80175 10.0017 1.80175C11.4567 1.80175 14.5837 1.68575 15.8958 2.20275C16.326 2.37258 16.7168 2.62905 17.0439 2.95624C17.3709 3.28343 17.6272 3.67436 17.7968 4.10475C18.3188 5.42075 18.1978 8.54475 18.1978 9.99975C18.1978 11.4548 18.3188 14.5837 17.7968 15.8958Z" fill="white"/>
</svg>
