<svg width="20" height="20" viewBox="0 0 20 20" fill="none" xmlns="http://www.w3.org/2000/svg">
<path d="M4.54 20V6.506H0.253V20H4.54ZM2.397 4.663C3.892 4.663 4.823 3.626 4.823 2.331C4.795 1.008 3.893 0 2.425 0C0.96 0 0 1.007 0 2.332C0 3.626 0.93 4.662 2.37 4.662L2.397 4.663ZM6.913 20H11.2V12.464C11.2 12.061 11.228 11.658 11.341 11.37C11.651 10.564 12.357 9.73 13.541 9.73C15.092 9.73 15.713 10.967 15.713 12.78V20H20V12.263C20 8.118 17.885 6.189 15.064 6.189C12.751 6.189 11.736 7.542 11.172 8.463H11.2V6.506H6.913C6.969 7.772 6.913 20 6.913 20Z" fill="white"/>
</svg>
