<svg width="18" height="18" viewBox="0 0 18 18" fill="none" xmlns="http://www.w3.org/2000/svg">
<path d="M16.5697 5.88293C15.6478 1.82634 12.1092 0 9.00094 0C9.00094 0 9.00094 0 8.99216 0C5.89265 0 2.34533 1.81756 1.42338 5.87415C0.396064 10.4049 3.1707 14.242 5.68192 16.6566C6.61265 17.5522 7.8068 18 9.00094 18C10.1951 18 11.3892 17.5522 12.3112 16.6566C14.8224 14.242 17.597 10.4137 16.5697 5.88293ZM9.00094 10.282C7.47314 10.282 6.23509 9.0439 6.23509 7.5161C6.23509 5.98829 7.47314 4.75024 9.00094 4.75024C10.5287 4.75024 11.7668 5.98829 11.7668 7.5161C11.7668 9.0439 10.5287 10.282 9.00094 10.282Z" fill="#D74315"/>
</svg>
