<svg width="34" height="34" viewBox="0 0 34 34" fill="none" xmlns="http://www.w3.org/2000/svg">
<g clip-path="url(#clip0_11823_4251)">
<path fill-rule="evenodd" clip-rule="evenodd" d="M16.1912 8.92962C14.1255 9.13951 12.2193 10.1346 10.8661 11.7095C9.51303 13.2844 8.81636 15.3187 8.91997 17.3924C9.02358 19.4662 9.91958 21.4209 11.4229 22.8531C12.9263 24.2852 14.9222 25.0854 16.9985 25.0883C18.0635 25.0939 19.1189 24.8876 20.1034 24.4815C21.0879 24.0754 21.9818 23.4776 22.7331 22.7228C24.2466 21.2036 25.0982 19.1477 25.1024 17.0033C25.1024 16.7618 25.1024 16.4827 24.7817 16.4827H22.6576C22.337 16.4827 22.337 16.7618 22.337 17.0033C22.3268 18.4236 21.7654 19.7844 20.7713 20.7987C19.7698 21.7976 18.413 22.3586 16.9985 22.3586C15.584 22.3586 14.2272 21.7976 13.2258 20.7987C12.2288 19.7856 11.6647 18.4246 11.6525 17.0033C11.6555 15.586 12.2196 14.2276 13.2214 13.2251C14.2232 12.2226 15.5813 11.6575 16.9985 11.6535C17.24 11.6535 17.5192 11.6535 17.5192 11.3329V0.625803C17.5302 0.550737 17.525 0.474164 17.5038 0.401299C17.4827 0.328433 17.446 0.260986 17.3965 0.203547C17.3469 0.146109 17.2855 0.100029 17.2165 0.0684429C17.1475 0.0368572 17.0725 0.0205078 16.9966 0.0205078C16.9208 0.0205078 16.8458 0.0368572 16.7768 0.0684429C16.7078 0.100029 16.6464 0.146109 16.5968 0.203547C16.5472 0.260986 16.5106 0.328433 16.4894 0.401299C16.4683 0.474164 16.463 0.550737 16.4741 0.625803V8.60894C16.4765 8.68771 16.449 8.76448 16.3973 8.82393C16.3455 8.88337 16.2733 8.92111 16.1949 8.92962H16.1912ZM31.3651 7.08475L26.7096 11.7215C26.662 11.7737 26.6035 11.8149 26.5384 11.8423C26.4732 11.8696 26.4029 11.8825 26.3323 11.8799H23.2952C23.1277 11.8867 22.9694 11.9584 22.8538 12.0799L17.3154 17.5881C17.2681 17.6356 17.2119 17.6734 17.15 17.6993C17.0881 17.7251 17.0217 17.7385 16.9546 17.7386C16.8875 17.7388 16.821 17.7258 16.759 17.7003C16.6969 17.6748 16.6405 17.6373 16.5929 17.59C16.5454 17.5426 16.5076 17.4864 16.4818 17.4245C16.4559 17.3626 16.4426 17.2962 16.4424 17.2291C16.4422 17.162 16.4552 17.0956 16.4808 17.0335C16.5063 16.9715 16.5437 16.915 16.5911 16.8675L22.0917 11.3744C22.1615 11.3164 22.2154 11.2417 22.2484 11.1572C22.2813 11.0728 22.2924 10.9813 22.2804 10.8914V7.87325C22.2823 7.80574 22.2976 7.73928 22.3255 7.67775C22.3533 7.61622 22.3931 7.56084 22.4426 7.51484L27.151 2.83286C27.2246 2.76153 27.3177 2.71353 27.4186 2.6949C27.5194 2.67626 27.6235 2.68782 27.7178 2.72811C27.8121 2.76841 27.8924 2.83565 27.9486 2.9214C28.0048 3.00715 28.0344 3.1076 28.0338 3.21014V5.89633C28.0333 5.93858 28.0413 5.98051 28.0572 6.01965C28.0731 6.05878 28.0967 6.09434 28.1266 6.12422C28.1565 6.1541 28.192 6.1777 28.2312 6.19363C28.2703 6.20957 28.3122 6.21752 28.3545 6.21701H30.9954C31.0996 6.21254 31.2026 6.23991 31.2908 6.29547C31.3791 6.35102 31.4483 6.43214 31.4892 6.52801C31.5302 6.62387 31.541 6.72995 31.5202 6.8321C31.4994 6.93426 31.4479 7.02765 31.3727 7.09984L31.3651 7.08475ZM26.4606 16.4676H33.493C33.6311 16.4676 33.7635 16.5224 33.8611 16.6201C33.9588 16.7177 34.0136 16.8501 34.0136 16.9882C34.0136 17.1263 33.9588 17.2587 33.8611 17.3564C33.7635 17.454 33.6311 17.5088 33.493 17.5088H30.7653C30.7221 17.5048 30.6786 17.5103 30.6379 17.5249C30.5971 17.5396 30.5601 17.5631 30.5295 17.5937C30.4988 17.6244 30.4753 17.6614 30.4607 17.7021C30.446 17.7429 30.4405 17.7864 30.4446 17.8295C30.2487 20.5842 29.2463 23.2203 27.5622 25.409C25.6907 27.7907 23.071 29.4721 20.1261 30.1815C19.8847 30.223 19.6017 30.1815 19.6017 29.8608V25.9711C19.611 25.9059 19.6386 25.8447 19.6813 25.7946C19.7241 25.7445 19.7802 25.7076 19.8432 25.6882C21.2024 25.2142 22.4377 24.4406 23.4575 23.4245C25.1681 21.7241 26.1353 19.4152 26.1474 17.0033C26.1474 16.7618 26.1474 16.4827 26.4681 16.4827L26.4606 16.4676ZM17.5154 26.4352V33.4525C17.5043 33.5834 17.4444 33.7054 17.3476 33.7942C17.2509 33.8831 17.1243 33.9324 16.9929 33.9324C16.8615 33.9324 16.7349 33.8831 16.6381 33.7942C16.5413 33.7054 16.4815 33.5834 16.4703 33.4525V30.8116C16.4736 30.7325 16.4465 30.6553 16.3946 30.5957C16.3426 30.536 16.2699 30.4985 16.1912 30.4909C13.3134 30.2982 10.5738 29.1858 8.37632 27.3178C6.17884 25.4497 4.63985 22.925 3.98631 20.1158C3.90709 19.8744 3.98631 19.6367 4.2655 19.6367H8.00052C8.07359 19.6313 8.14616 19.6523 8.20503 19.6959C8.26389 19.7396 8.30512 19.8029 8.3212 19.8744C8.9284 21.6956 10.0931 23.2796 11.6504 24.4023C13.2078 25.5249 15.0788 26.1292 16.9985 26.1296C17.24 26.1296 17.5192 26.1296 17.5192 26.4503L17.5154 26.4352ZM7.51761 17.4938H0.53425C0.396168 17.4938 0.263741 17.4389 0.166102 17.3413C0.0684637 17.2436 0.0136108 17.1112 0.0136108 16.9731C0.0136108 16.835 0.0684637 16.7026 0.166102 16.605C0.263741 16.5073 0.396168 16.4525 0.53425 16.4525H3.26195C3.34875 16.4606 3.43547 16.4361 3.50521 16.3838C3.57496 16.3315 3.62273 16.2551 3.63922 16.1695C3.78257 13.2942 4.83589 10.5387 6.64714 8.30094C8.45838 6.06317 10.9339 4.45881 13.7162 3.71946C13.764 3.71078 13.8132 3.71247 13.8603 3.7244C13.9074 3.73634 13.9514 3.75825 13.9893 3.78865C14.0272 3.81905 14.0581 3.85723 14.08 3.90062C14.1019 3.944 14.1142 3.99158 14.1161 4.04014V8.08453C14.1223 8.15246 14.1061 8.22055 14.07 8.27843C14.0339 8.33632 13.9799 8.38083 13.9162 8.40521C12.6511 8.86192 11.5003 9.58793 10.5433 10.533C9.68775 11.3796 9.00821 12.3872 8.54394 13.4977C8.07966 14.6082 7.83984 15.7997 7.83829 17.0033C7.83829 17.2448 7.83829 17.5239 7.51761 17.5239V17.4938ZM20.9675 16.4525H20.4468C20.4054 16.4512 20.3645 16.4619 20.329 16.4833C20.2935 16.5047 20.265 16.536 20.2469 16.5732L18.2775 18.5388C16.5533 20.2365 13.9803 17.6296 15.6705 15.9469L17.3947 14.1813C17.4311 14.1621 17.4615 14.1333 17.4828 14.0981C17.5041 14.0628 17.5153 14.0225 17.5154 13.9813V13.0193C17.5101 12.936 17.4746 12.8575 17.4155 12.7984C17.3565 12.7394 17.278 12.7039 17.1947 12.6986C16.3264 12.667 15.4687 12.8985 14.7342 13.3628C13.9997 13.827 13.4226 14.5023 13.0784 15.3002C12.7343 16.098 12.6392 16.9813 12.8057 17.8341C12.9722 18.6869 13.3924 19.4696 14.0113 20.0795C14.6302 20.6894 15.4189 21.0981 16.2741 21.252C17.1293 21.406 18.011 21.298 18.8037 20.9422C19.5965 20.5864 20.2633 19.9995 20.7167 19.2582C21.1701 18.517 21.389 17.656 21.3447 16.7883C21.3311 16.6983 21.2854 16.6163 21.2161 16.5574C21.1467 16.4984 21.0584 16.4665 20.9675 16.4676V16.4525Z" fill="#D74315"/>
</g>
<defs>
<clipPath id="clip0_11823_4251">
<rect width="34" height="34" fill="white"/>
</clipPath>
</defs>
</svg>
