<svg width="100" height="81" viewBox="0 0 100 81" fill="none" xmlns="http://www.w3.org/2000/svg">
<path d="M23.7452 0C17.5591 0 11.7061 2.47445 7.13785 7.04268C2.56962 11.5633 0 17.7019 0 23.7928C0 31.9776 4.13995 39.4961 11.135 43.9215C12.6578 44.8733 13.7047 46.396 14.0853 48.0615C15.275 53.3435 15.3702 58.6255 14.3233 63.8123C13.6095 67.2861 12.4199 70.6647 10.8019 73.8529C9.80264 75.8039 10.2309 78.088 11.8488 79.5632C12.753 80.3721 13.895 80.8004 14.9895 80.8004C15.9412 80.8004 16.8929 80.5149 17.7019 79.9439C23.4121 75.9943 28.5038 71.2357 32.7865 65.8109C44.4926 50.9166 47.0622 34.7375 47.5856 26.4576C48.1091 19.6529 45.6822 12.8481 41.0188 7.80404C36.4982 2.90272 30.2169 0.0951712 23.7928 0.0951712L23.7452 0ZM35.6416 26.1721C34.3092 26.1721 33.2624 25.1252 33.2624 23.7928C33.2624 18.5584 28.9797 14.2757 23.7452 14.2757C22.4128 14.2757 21.366 13.2288 21.366 11.8964C21.366 10.564 22.4128 9.51713 23.7452 9.51713C31.5969 9.51713 38.0209 15.9412 38.0209 23.7928C38.0209 25.1252 36.974 26.1721 35.6416 26.1721ZM93.3154 7.70887C88.7948 2.80755 82.5135 0 76.0894 0C69.9033 0 64.0503 2.47445 59.482 7.04268C54.9138 11.5633 52.3442 17.7019 52.3442 23.7928C52.3442 31.9776 56.4842 39.4961 63.4792 43.9215C65.002 44.8733 66.0489 46.396 66.4296 48.0615C67.6192 53.3435 67.7144 58.6255 66.6675 63.8123C65.9537 67.2861 64.7641 70.6647 63.1461 73.8529C62.1468 75.8039 62.5751 78.088 64.193 79.5632C65.0972 80.3721 66.2392 80.8004 67.3337 80.8004C68.2854 80.8004 69.2371 80.5149 70.0461 79.9439C75.7563 75.9943 80.848 71.2357 85.1307 65.8109C96.8368 50.9166 99.4064 34.7375 99.9298 26.4576C100.453 19.6529 98.0264 12.8481 93.363 7.80404L93.3154 7.70887ZM87.9858 26.1721C86.6535 26.1721 85.6066 25.1252 85.6066 23.7928C85.6066 18.5584 81.3239 14.2757 76.0894 14.2757C74.757 14.2757 73.7102 13.2288 73.7102 11.8964C73.7102 10.564 74.757 9.51713 76.0894 9.51713C83.9411 9.51713 90.3651 15.9412 90.3651 23.7928C90.3651 25.1252 89.3182 26.1721 87.9858 26.1721Z" fill="#D74315"/>
</svg>
