<svg width="100" height="100" viewBox="0 0 100 100" fill="none" xmlns="http://www.w3.org/2000/svg">
<g opacity="0.05" clip-path="url(#clip0_11992_241)">
<path d="M23.8175 9.55859C17.6314 9.55859 11.7783 12.033 7.21011 16.6013C2.64189 21.1219 0.0722656 27.2605 0.0722656 33.3514C0.0722656 41.5361 4.21222 49.0547 11.2073 53.4801C12.73 54.4319 13.7769 55.9546 14.1576 57.6201C15.3473 62.9021 15.4424 68.1841 14.3955 73.3709C13.6818 76.8447 12.4921 80.2233 10.8742 83.4115C9.87491 85.3625 10.3032 87.6466 11.9211 89.1218C12.8252 89.9307 13.9673 90.359 15.0617 90.359C16.0135 90.359 16.9652 90.0735 17.7741 89.5025C23.4844 85.5529 28.5761 80.7943 32.8588 75.3695C44.5648 60.4752 47.1345 44.2961 47.6579 36.0162C48.1813 29.2115 45.7545 22.4067 41.0911 17.3626C36.5704 12.4613 30.2891 9.65376 23.8651 9.65376L23.8175 9.55859ZM35.7139 35.7307C34.3815 35.7307 33.3346 34.6838 33.3346 33.3514C33.3346 28.117 29.0519 23.8343 23.8175 23.8343C22.4851 23.8343 21.4382 22.7874 21.4382 21.455C21.4382 20.1226 22.4851 19.0757 23.8175 19.0757C31.6691 19.0757 38.0932 25.4998 38.0932 33.3514C38.0932 34.6838 37.0463 35.7307 35.7139 35.7307ZM93.3877 17.2675C88.8671 12.3661 82.5858 9.55859 76.1617 9.55859C69.9756 9.55859 64.1225 12.033 59.5543 16.6013C54.9861 21.1219 52.4165 27.2605 52.4165 33.3514C52.4165 41.5361 56.5564 49.0547 63.5515 53.4801C65.0742 54.4319 66.1211 55.9546 66.5018 57.6201C67.6915 62.9021 67.7866 68.1841 66.7397 73.3709C66.026 76.8447 64.8363 80.2233 63.2184 83.4115C62.2191 85.3625 62.6474 87.6466 64.2653 89.1218C65.1694 89.9307 66.3115 90.359 67.4059 90.359C68.3577 90.359 69.3094 90.0735 70.1183 89.5025C75.8286 85.5529 80.9203 80.7943 85.203 75.3695C96.909 60.4752 99.4787 44.2961 100.002 36.0162C100.526 29.2115 98.0987 22.4067 93.4353 17.3626L93.3877 17.2675ZM88.0581 35.7307C86.7257 35.7307 85.6788 34.6838 85.6788 33.3514C85.6788 28.117 81.3961 23.8343 76.1617 23.8343C74.8293 23.8343 73.7824 22.7874 73.7824 21.455C73.7824 20.1226 74.8293 19.0757 76.1617 19.0757C84.0133 19.0757 90.4374 25.4998 90.4374 33.3514C90.4374 34.6838 89.3905 35.7307 88.0581 35.7307Z" fill="#D74315"/>
</g>
<defs>
<clipPath id="clip0_11992_241">
<rect width="100" height="100" fill="white"/>
</clipPath>
</defs>
</svg>
