<svg width="20" height="20" viewBox="0 0 20 20" fill="none" xmlns="http://www.w3.org/2000/svg">
<path d="M8.57887 0.65625L6.22687 5.63325L0.976875 6.43125C0.696875 6.45925 0.462375 6.59925 0.273375 6.85125C0.084375 7.10325 -0.006625 7.39025 0.000375 7.71225C0.007375 8.03425 0.122875 8.30725 0.346875 8.53125L4.12687 12.3742L3.24487 17.8972C3.18887 18.2052 3.24487 18.4817 3.41287 18.7267C3.58087 18.9717 3.80837 19.1327 4.09538 19.2097C4.38237 19.2867 4.65188 19.2552 4.90387 19.1152L9.62887 16.6582L14.3539 19.1152C14.6339 19.2552 14.9174 19.2867 15.2044 19.2097C15.4914 19.1327 15.7119 18.9717 15.8659 18.7267C16.0199 18.4817 16.0689 18.2052 16.0129 17.8972L15.1519 12.3742L18.9109 8.53125C19.1349 8.30725 19.2504 8.04125 19.2574 7.73325C19.2644 7.42525 19.1769 7.14525 18.9949 6.89325C18.8129 6.64125 18.5819 6.48725 18.3019 6.43125L13.0519 5.63325L10.6789 0.65625C10.5389 0.376251 10.3289 0.18375 10.0489 0.0787506C9.76888 -0.0262489 9.48887 -0.0262489 9.20887 0.0787506C8.92887 0.18375 8.71887 0.376251 8.57887 0.65625Z" fill="#FF7D44"/>
</svg>
