<svg width="40" height="32" viewBox="0 0 40 32" fill="none" xmlns="http://www.w3.org/2000/svg">
<path fill-rule="evenodd" clip-rule="evenodd" d="M29.904 16.4176C28.08 16.4176 26.368 16.7856 24.928 17.4096C29.968 18.8656 33.536 22.3536 33.632 26.4336C36.256 26.0976 39.088 25.1056 39.088 22.4016C39.088 19.1536 34.88 16.4176 29.904 16.4176ZM29.856 14.1136H29.888C33.296 14.1136 36.08 11.3296 36.08 7.9376C36.0758 6.29668 35.4221 4.72418 34.2617 3.56387C33.1014 2.40355 31.5289 1.74983 29.888 1.74561C29.216 1.74561 28.576 1.85761 27.968 2.04961C29.1106 3.74083 29.7183 5.73658 29.712 7.77761C29.7317 9.92184 29.0582 12.0151 27.792 13.7456C28.448 13.9856 29.136 14.1136 29.856 14.1136ZM14.144 17.3936C12.704 16.7856 10.992 16.4176 9.184 16.4176C4.208 16.4176 0 19.1536 0 22.4016C0 25.1056 2.816 26.0816 5.44 26.4336C5.52 22.3536 9.088 18.8656 14.144 17.3936ZM9.184 14.1136H9.232C9.952 14.1136 10.64 13.9856 11.296 13.7456C10.0322 12.0129 9.35402 9.92224 9.36 7.77761C9.36 5.64961 10 3.68161 11.104 2.04961C10.496 1.85761 9.856 1.74561 9.184 1.74561C7.54455 1.74984 5.9737 2.40408 4.81593 3.56485C3.65817 4.72561 3.00799 6.29815 3.008 7.9376C3.008 11.3296 5.776 14.1136 9.184 14.1136Z" fill="#D74315"/>
<path fill-rule="evenodd" clip-rule="evenodd" d="M19.5364 19.0368C13.1988 19.0368 7.84363 22.4864 7.84363 26.5696C7.84363 31.8496 16.6436 31.8496 19.5364 31.8496C24.5572 31.8496 31.2324 31.3056 31.2324 26.6032C31.2324 22.5008 25.8756 19.0368 19.5364 19.0368ZM19.5364 15.5632H19.5908C20.6095 15.5627 21.618 15.36 22.5578 14.967C23.4977 14.574 24.3502 13.9984 25.066 13.2736C25.7861 12.5531 26.356 11.6969 26.7427 10.7546C27.1294 9.81227 27.3252 8.80257 27.3188 7.784C27.3167 5.72048 26.4962 3.74206 25.0372 2.28278C23.5782 0.823506 21.5999 0.00254124 19.5364 0C17.4733 0.00296535 15.4957 0.824168 14.0373 2.28345C12.5789 3.74272 11.7589 5.72091 11.7572 7.784C11.7598 9.84639 12.5802 11.8236 14.0385 13.2819C15.4968 14.7403 17.474 15.5607 19.5364 15.5632Z" fill="#D74315"/>
</svg>
