<svg width="38" height="40" viewBox="0 0 38 40" fill="none" xmlns="http://www.w3.org/2000/svg">
<path d="M2.00006 2C0.900061 2 6.10352e-05 2.9 6.10352e-05 4V25C6.10352e-05 26.1 0.900061 27 2.00006 27H4.00006V4C4.00006 2.9 3.10006 2 2.00006 2Z" fill="#D74315"/>
<path d="M30.9999 24C31.3399 24 31.6699 24.02 31.9999 24.06V4C31.9999 1.79 30.2099 0 27.9999 0H1.99988C4.20988 0 5.99988 1.79 5.99988 4V37C5.99988 37.37 6.19988 37.71 6.52988 37.88C6.84988 38.05 7.24988 38.03 7.55988 37.83L10.0099 36.2L12.4599 37.83C12.7999 38.05 13.2299 38.05 13.5699 37.83L16.0199 36.2L18.4699 37.83C18.8099 38.05 19.2399 38.05 19.5799 37.83L22.0299 36.2L22.8599 36.75C22.3122 35.5722 22.0289 34.2889 22.0299 32.99C22.0299 28.03 26.0699 23.99 31.0299 23.99L30.9999 24ZM11.0199 30C10.4699 30 10.0199 29.55 10.0199 29C10.0199 28.45 10.4599 28 11.0099 28H11.0199C11.5699 28 12.0199 28.45 12.0199 29C12.0199 29.55 11.5699 30 11.0199 30ZM11.0199 25C10.4699 25 10.0199 24.55 10.0199 24C10.0199 23.45 10.4599 23 11.0099 23H11.0199C11.5699 23 12.0199 23.45 12.0199 24C12.0199 24.55 11.5699 25 11.0199 25ZM16.9999 14C15.8999 14 14.9999 13.1 14.9999 12V10C14.9999 8.9 15.8999 8 16.9999 8H17.9999V7C17.9999 6.45 18.4499 6 18.9999 6C19.5499 6 19.9999 6.45 19.9999 7V8H21.9999C22.5499 8 22.9999 8.45 22.9999 9C22.9999 9.55 22.5499 10 21.9999 10H16.9999V12H20.9999C22.0999 12 22.9999 12.9 22.9999 14V16C22.9999 17.1 22.0999 18 20.9999 18H19.9999V19C19.9999 19.55 19.5499 20 18.9999 20C18.4499 20 17.9999 19.55 17.9999 19V18H15.9999C15.4499 18 14.9999 17.55 14.9999 17C14.9999 16.45 15.4499 16 15.9999 16H20.9999V14H16.9999ZM19.1999 30H14.9999C14.4499 30 13.9999 29.55 13.9999 29C13.9999 28.45 14.4499 28 14.9999 28H19.1999C19.7499 28 20.1999 28.45 20.1999 29C20.1999 29.55 19.7499 30 19.1999 30ZM21.8599 25H14.9999C14.4499 25 13.9999 24.55 13.9999 24C13.9999 23.45 14.4499 23 14.9999 23H21.8599C22.4099 23 22.8599 23.45 22.8599 24C22.8599 24.55 22.4099 25 21.8599 25Z" fill="#D74315"/>
<path d="M31.0001 26C27.1401 26 24.0001 29.14 24.0001 33C24.0001 36.86 27.1401 40 31.0001 40C34.8601 40 38.0001 36.86 38.0001 33C38.0001 29.14 34.8601 26 31.0001 26ZM33.0001 34H31.0001C30.4501 34 30.0001 33.55 30.0001 33V31C30.0001 30.45 30.4501 30 31.0001 30C31.5501 30 32.0001 30.45 32.0001 31V32H33.0001C33.5501 32 34.0001 32.45 34.0001 33C34.0001 33.55 33.5501 34 33.0001 34Z" fill="#D74315"/>
</svg>
