<svg width="33" height="39" viewBox="0 0 33 39" fill="none" xmlns="http://www.w3.org/2000/svg">
<path d="M10.332 9.10804H21.9586L25.6409 2.30992C25.7594 2.09121 25.8052 1.84048 25.7717 1.59402C25.7382 1.34755 25.6272 1.11813 25.4547 0.938964C25.2821 0.759793 25.0571 0.640163 24.812 0.597385C24.567 0.554607 24.3147 0.590899 24.0917 0.701011C21.4566 2.0021 19.1522 1.44687 16.484 0.804292C13.8454 0.168746 10.8552 -0.551567 7.30508 0.640855C7.14305 0.695287 6.9949 0.784503 6.871 0.902248C6.7471 1.01999 6.65046 1.16341 6.58785 1.32246C6.52524 1.4815 6.49818 1.65231 6.50856 1.82292C6.51895 1.99353 6.56653 2.1598 6.64797 2.31007L10.332 9.10804ZM23.1845 11.9277C23.0321 11.77 22.8788 11.6111 22.7245 11.4512H9.56617C9.41206 11.6109 9.2587 11.7698 9.10609 11.9277C6.73023 14.3859 4.48602 16.7078 2.81547 19.3069C0.894687 22.2955 0 25.2252 0 28.5273C0 32.3585 2.0657 35.2835 5.97359 36.986C9.31602 38.4421 13.3494 38.7477 16.1444 38.7477C18.9598 38.7477 23.0155 38.4419 26.3482 36.9854C30.2359 35.2862 32.2909 32.3615 32.2909 28.5273C32.2909 25.2253 31.3962 22.2955 29.4755 19.3069C27.8049 16.7078 25.5607 14.3859 23.1845 11.9277ZM16.3853 22.782C17.2246 22.9586 18.0924 23.1414 18.8368 23.632C19.804 24.2695 20.2945 25.2549 20.2945 26.5608C20.2945 28.2847 19.0355 29.7435 17.3159 30.2081V30.8127C17.3159 31.1235 17.1925 31.4215 16.9727 31.6413C16.7529 31.8611 16.4549 31.9845 16.1441 31.9845C15.8333 31.9845 15.5352 31.8611 15.3154 31.6413C15.0957 31.4215 14.9722 31.1235 14.9722 30.8127V30.2081C13.2527 29.7435 11.9937 28.2847 11.9937 26.5608C11.9937 26.25 12.1171 25.9519 12.3369 25.7321C12.5567 25.5124 12.8547 25.3889 13.1655 25.3889C13.4763 25.3889 13.7744 25.5124 13.9942 25.7321C14.214 25.9519 14.3374 26.25 14.3374 26.5608C14.3374 27.3655 15.1479 28.0198 16.1441 28.0198C17.1402 28.0198 17.9507 27.3652 17.9507 26.5608C17.9507 25.6545 17.6636 25.446 15.9027 25.0755C15.0635 24.899 14.1956 24.7162 13.4513 24.2257C12.4841 23.588 11.9937 22.6027 11.9937 21.2968C11.9937 19.5718 13.2527 18.1122 14.9722 17.6473V17.0449C14.9722 16.7341 15.0957 16.436 15.3154 16.2163C15.5352 15.9965 15.8333 15.873 16.1441 15.873C16.4549 15.873 16.7529 15.9965 16.9727 16.2163C17.1925 16.436 17.3159 16.7341 17.3159 17.0449V17.6471C19.0355 18.1119 20.2945 19.5716 20.2945 21.2966C20.2945 21.6074 20.171 21.9054 19.9512 22.1252C19.7314 22.345 19.4334 22.4684 19.1226 22.4684C18.8118 22.4684 18.5137 22.345 18.2939 22.1252C18.0742 21.9054 17.9507 21.6074 17.9507 21.2966C17.9507 20.4909 17.1402 19.8356 16.1441 19.8356C15.1479 19.8356 14.3374 20.4911 14.3374 21.2966C14.3377 22.2033 14.6248 22.4115 16.3856 22.782H16.3853Z" fill="#D74315"/>
</svg>
