<svg width="34" height="35" viewBox="0 0 34 35" fill="none" xmlns="http://www.w3.org/2000/svg">
<path d="M31.8118 8.68333C30.3951 7.11667 28.0284 6.33333 24.5951 6.33333H24.1951V6.26667C24.1951 3.46667 24.1951 0 17.9284 0H15.3951C9.12851 0 9.12851 3.48333 9.12851 6.26667V6.35H8.72851C5.27851 6.35 2.92851 7.13333 1.51185 8.7C-0.138154 10.5333 -0.0881538 13 0.0785129 14.6833L0.0951795 14.7999L0.224263 16.1554C0.248046 16.4051 0.38248 16.6306 0.592296 16.768C0.99198 17.0294 1.66088 17.4606 2.06185 17.6833C2.29518 17.8333 2.54518 17.9666 2.79518 18.0999C5.64518 19.6666 8.77851 20.7166 11.9618 21.2333C12.1118 22.7999 12.7952 24.6333 16.4451 24.6333C20.0951 24.6333 20.8118 22.8166 20.9284 21.1999C24.3284 20.6499 27.6118 19.4666 30.5784 17.7333C30.6784 17.6833 30.7451 17.6333 30.8284 17.5833C31.4898 17.2096 32.1756 16.7491 32.8009 16.2981C32.9893 16.1621 33.1098 15.9521 33.1354 15.7213L33.1618 15.4833L33.2451 14.7C33.2618 14.5999 33.2618 14.5166 33.2784 14.3999C33.4118 12.7167 33.3784 10.4167 31.8118 8.68333ZM18.4784 20.0999C18.4784 21.8666 18.4784 22.1333 16.4284 22.1333C14.3784 22.1333 14.3784 21.8166 14.3784 20.1166V18.0166H18.4784V20.0999ZM11.5118 6.33333V6.26667C11.5118 3.43333 11.5118 2.38333 15.3951 2.38333H17.9284C21.8118 2.38333 21.8118 3.45 21.8118 6.26667V6.35H11.5118V6.33333Z" fill="#D74315"/>
<path d="M31.4506 19.9425C32.0399 19.662 32.7186 20.1292 32.6596 20.7792L32.0614 27.3688C31.7114 30.7022 30.3447 34.1022 23.0114 34.1022H10.3114C2.97806 34.1022 1.61139 30.7022 1.26139 27.3855L0.693543 21.1392C0.635126 20.4967 1.29839 20.03 1.88613 20.296C3.78514 21.1552 7.29038 22.6795 9.45568 23.2467C9.72953 23.3183 9.95101 23.5143 10.0709 23.7708C11.0825 25.9343 13.2766 27.0855 16.4447 27.0855C19.5816 27.0855 21.8032 25.89 22.8182 23.7212C22.9384 23.4645 23.1601 23.2685 23.4341 23.1965C25.7334 22.5915 29.4644 20.8875 31.4506 19.9425Z" fill="#D74315"/>
</svg>
