<svg width="38" height="40" viewBox="0 0 38 40" fill="none" xmlns="http://www.w3.org/2000/svg">
<path d="M8.87247 7.31208C8.61647 7.65608 8.48046 8.02408 8.48046 8.41609C8.48046 10.6081 13.2805 13.3841 18.6646 13.3841C24.0486 13.3841 28.8487 10.6081 28.8487 8.41609C28.8487 8.02408 28.7127 7.65608 28.4567 7.31208C30.2887 6.59207 31.4567 5.62406 31.4567 4.39205C31.4647 1.51202 25.0246 0 18.6726 0C12.3125 0 5.87244 1.51202 5.87244 4.39205C5.87244 5.61606 7.04845 6.59207 8.87247 7.31208Z" fill="#D74315"/>
<path d="M18.6723 14.9835C15.1843 14.9835 11.8083 13.9195 9.56824 12.3755C10.1762 16.4555 12.1843 23.9596 18.6723 23.9596C25.1524 23.9596 27.1604 16.4555 27.7684 12.3755C25.5284 13.9195 22.1604 14.9835 18.6723 14.9835ZM22.3284 27.6236L22.5524 29.6637L25.2804 24.3036C24.9444 24.0796 24.6404 23.7916 24.3444 23.4716C23.2164 24.4396 21.9284 25.0716 20.5124 25.3676C21.4724 25.6156 22.2084 26.4876 22.3284 27.6236ZM12.9443 23.4316C12.6323 23.7836 12.2883 24.1196 11.8883 24.3836L14.7443 29.9997L15.0083 27.6236C15.1363 26.4876 15.8643 25.6156 16.8243 25.3676C15.3923 25.0636 14.0883 24.4156 12.9443 23.4316ZM29.9204 26.0236L26.7364 24.9756L19.4643 39.2478L19.8483 39.9998H36.5445C36.9845 39.9998 37.3445 39.6398 37.3445 39.1998V36.2877C37.3445 31.6157 34.3605 27.4876 29.9204 26.0236ZM32.0405 32.9677C31.8965 33.0797 31.7205 33.1357 31.5445 33.1357C31.3125 33.1357 31.0725 33.0317 30.9205 32.8317C30.2397 31.973 29.3217 31.3331 28.2804 30.9917C27.8644 30.8557 27.6324 30.3997 27.7684 29.9837C27.9124 29.5597 28.3604 29.3357 28.7844 29.4717C30.1284 29.9117 31.2965 30.7357 32.1765 31.8397C32.4485 32.1917 32.3845 32.6877 32.0405 32.9677ZM20.7444 27.7997C20.6884 27.2796 20.3523 26.8876 19.9523 26.8876H17.3923C16.9923 26.8876 16.6563 27.2716 16.6003 27.7997L16.0723 32.5997L18.5683 37.4958L21.2324 32.2717L20.7444 27.7997ZM17.6723 39.2478L10.4242 25.0396L7.42421 26.0236C5.26197 26.7322 3.37934 28.1067 2.04582 29.9504C0.712285 31.7941 -0.00377394 34.0124 0.000138014 36.2877V39.1998C0.000138014 39.6398 0.352142 39.9998 0.800146 39.9998H17.2883L17.6723 39.2478ZM9.05623 30.9917C8.01625 31.3313 7.1003 31.9716 6.4242 32.8317C6.2642 33.0317 6.0322 33.1357 5.7922 33.1357C5.6162 33.1357 5.44019 33.0797 5.29619 32.9677C4.95219 32.6877 4.88819 32.1917 5.16819 31.8397C6.03946 30.7319 7.22002 29.9077 8.56023 29.4717C8.66002 29.4388 8.76532 29.4261 8.87007 29.4341C8.97482 29.442 9.07696 29.4706 9.17062 29.5182C9.26428 29.5658 9.34762 29.6314 9.41586 29.7113C9.48409 29.7912 9.53588 29.8837 9.56824 29.9837C9.60106 30.0835 9.61384 30.1888 9.60585 30.2935C9.59786 30.3983 9.56926 30.5004 9.52168 30.5941C9.47411 30.6877 9.4085 30.7711 9.32862 30.8393C9.24875 30.9075 9.15618 30.9593 9.05623 30.9917Z" fill="#D74315"/>
</svg>
