<svg width="18" height="16" viewBox="0 0 18 16" fill="none" xmlns="http://www.w3.org/2000/svg">
<path d="M18.0004 5.94701V9.50165C18.0004 9.58118 17.9421 9.63279 17.8777 9.64196C17.8324 9.6484 17.7888 9.62245 17.7662 9.58276C17.0883 8.3948 15.8101 7.59408 14.3442 7.59408C12.1694 7.59408 10.4067 9.35681 10.4067 11.5316C10.4067 11.5376 10.4067 11.5432 10.407 11.5492C10.4067 11.5569 10.4067 11.5643 10.4067 11.572V11.578C10.4067 11.7294 10.2828 11.8533 10.1314 11.8533H7.91235C7.73738 11.8533 7.59419 11.7101 7.59419 11.5351V11.5316C7.59419 11.0447 7.50594 10.5781 7.34423 10.1478C7.25352 9.90665 7.51333 9.68341 7.73868 9.80857C7.79514 9.83998 7.86069 9.85101 7.92432 9.83981C7.98795 9.82861 8.04579 9.79585 8.08813 9.74705L9.18782 8.47826H10.682C10.7581 8.47826 10.8312 8.448 10.8851 8.39413C10.9389 8.34026 10.9692 8.26721 10.9692 8.19103V7.35326C10.9692 7.27873 10.9991 7.20701 11.0518 7.15392L12.4577 5.74802C12.4582 5.74744 12.4588 5.74696 12.4595 5.74662C12.5322 5.67455 12.6567 5.7308 12.6567 5.83345V6.10943C12.6567 6.14094 12.6692 6.17117 12.6915 6.19345C12.7138 6.21574 12.744 6.22826 12.7755 6.22826H17.0379C17.0694 6.22826 17.0996 6.21574 17.1219 6.19345C17.1442 6.17117 17.1567 6.14094 17.1567 6.10943V5.78458C17.1567 5.75307 17.1692 5.72284 17.1915 5.70056C17.2138 5.67828 17.244 5.66576 17.2755 5.66576H17.7192C17.7938 5.66576 17.8653 5.69539 17.9181 5.74813C17.9708 5.80088 18.0004 5.87241 18.0004 5.94701Z" fill="#797979"/>
<path d="M3.65674 7.87511C5.67603 7.87511 7.31299 9.51207 7.31299 11.5314C7.31299 13.5506 5.67603 15.1876 3.65674 15.1876C1.63745 15.1876 0.000488281 13.5506 0.000488281 11.5314C0.000488539 9.51207 1.63745 7.87511 3.65674 7.87511ZM3.65674 9.84386C2.72476 9.84386 1.96924 10.5994 1.96924 11.5314C1.9693 12.4633 2.72479 13.2189 3.65674 13.2189C4.58868 13.2189 5.34418 12.4633 5.34424 11.5314C5.34424 10.5994 4.58872 9.84386 3.65674 9.84386Z" fill="#797979"/>
<path d="M14.3442 7.875C16.3635 7.875 18.0004 9.51201 18.0005 11.5312C18.0005 13.5505 16.3635 15.1875 14.3442 15.1875C12.3249 15.1875 10.688 13.5505 10.688 11.5312C10.688 9.51201 12.325 7.875 14.3442 7.875ZM14.3442 9.84375C13.4123 9.84375 12.6567 10.5993 12.6567 11.5312C12.6567 12.4632 13.4123 13.2187 14.3442 13.2188C15.2762 13.2188 16.0317 12.4632 16.0317 11.5312C16.0317 10.5993 15.2762 9.84375 14.3442 9.84375Z" fill="#797979"/>
<path d="M15.75 0C15.8245 0 15.8965 0.0293721 15.9492 0.0820312C16.002 0.134767 16.0312 0.206672 16.0312 0.28125V1.125C16.0313 1.18677 16.0111 1.24684 15.9736 1.2959C15.9359 1.34504 15.8821 1.38051 15.8223 1.39648L12.8896 2.17871C12.2558 2.34773 11.8126 2.92417 11.8125 3.58008V4.78125C11.8125 4.84891 11.7884 4.91469 11.7441 4.96582L8.08789 9.18457C8.04564 9.23329 7.98734 9.26613 7.92383 9.27734C7.86037 9.28846 7.79459 9.27742 7.73828 9.24609L0.144531 5.02734C0.0797578 4.99129 0.0323636 4.93058 0.0117188 4.85938C-0.00890316 4.78816 -0.00129594 4.71159 0.0341797 4.64648L1.72168 1.55273C1.74587 1.50838 1.78175 1.4711 1.8252 1.44531C1.86857 1.41956 1.91831 1.40629 1.96875 1.40625H8.91016L10.8057 0.0527344C10.8533 0.0187157 10.9102 5.38744e-05 10.9688 0H15.75ZM3.09375 2.53125C3.01942 2.53132 2.94816 2.56082 2.89551 2.61328C2.84276 2.66603 2.8125 2.73791 2.8125 2.8125C2.8125 2.88709 2.84276 2.95897 2.89551 3.01172C2.94816 3.06418 3.01942 3.09368 3.09375 3.09375H4.21875V4.78125C4.21875 4.85584 4.24901 4.92772 4.30176 4.98047C4.35441 5.03293 4.42567 5.06243 4.5 5.0625C4.57453 5.0625 4.64649 5.03313 4.69922 4.98047C4.75196 4.92772 4.78125 4.85584 4.78125 4.78125V3.09375H6.75V6.46875C6.75 6.54334 6.78026 6.61522 6.83301 6.66797C6.88566 6.72043 6.95692 6.74993 7.03125 6.75C7.10578 6.75 7.17774 6.72063 7.23047 6.66797C7.28321 6.61522 7.3125 6.54334 7.3125 6.46875V3.09375H9.28125V5.0625C9.28125 5.13709 9.31151 5.20897 9.36426 5.26172C9.41691 5.31418 9.48817 5.34368 9.5625 5.34375C9.63703 5.34375 9.70899 5.31438 9.76172 5.26172C9.81446 5.20897 9.84375 5.13709 9.84375 5.0625V2.8125C9.84375 2.73791 9.81446 2.66603 9.76172 2.61328C9.70899 2.56062 9.63703 2.53125 9.5625 2.53125H3.09375ZM15.75 2.25C15.8022 2.24999 15.854 2.26453 15.8984 2.29199C15.9427 2.31943 15.9787 2.35867 16.002 2.40527L16.8457 4.09277C16.8652 4.13183 16.875 4.17508 16.875 4.21875V5.53125C16.8748 5.73833 16.7071 5.90614 16.5 5.90625H13.3135C13.1063 5.90625 12.9377 5.7384 12.9375 5.53125V3.45215C12.9378 2.78816 13.4766 2.25 14.1406 2.25H15.75ZM15.4688 3.375C15.0241 3.37513 14.6581 3.72128 14.627 4.1582C14.5917 4.65458 14.9946 5.06233 15.4922 5.0625H15.9922C16.0771 5.0625 16.1587 5.02875 16.2188 4.96875C16.2788 4.90868 16.3125 4.82713 16.3125 4.74219V4.35449C16.3125 4.30881 16.3017 4.26352 16.2812 4.22266L15.9463 3.55176C15.9197 3.49867 15.8786 3.45409 15.8281 3.42285C15.7775 3.39158 15.7187 3.375 15.6592 3.375H15.4688Z" fill="#797979"/>
</svg>
