<svg width="18" height="16" viewBox="0 0 18 16" fill="none" xmlns="http://www.w3.org/2000/svg">
<path d="M14.3438 15.1877C16.363 15.1877 18 13.5508 18 11.5315C18 9.5122 16.363 7.87524 14.3438 7.87524C12.3245 7.87524 10.6875 9.5122 10.6875 11.5315C10.6875 13.5508 12.3245 15.1877 14.3438 15.1877Z" fill="#797979"/>
<path d="M3.65625 15.1877C5.67554 15.1877 7.3125 13.5508 7.3125 11.5315C7.3125 9.5122 5.67554 7.87524 3.65625 7.87524C1.63696 7.87524 0 9.5122 0 11.5315C0 13.5508 1.63696 15.1877 3.65625 15.1877Z" fill="#797979"/>
<path d="M0.144708 5.02706L7.73846 9.24581C7.79488 9.2772 7.86039 9.2882 7.92397 9.27697C7.98756 9.26574 8.04533 9.23296 8.08759 9.18415L11.7439 4.9654C11.7882 4.91427 11.8126 4.84887 11.8126 4.78122V3.58021C11.8126 2.92423 12.2553 2.34802 12.8891 2.17898L15.8225 1.39676C15.8824 1.38079 15.9353 1.34549 15.9731 1.29634C16.0108 1.2472 16.0313 1.18697 16.0313 1.125V0.28125C16.0313 0.206658 16.0017 0.135121 15.9489 0.0823763C15.8962 0.0296317 15.8246 0 15.75 0H10.9688C10.9102 4.99324e-06 10.853 0.0183187 10.8053 0.0523829L8.90993 1.40625H1.96879C1.91827 1.40625 1.86867 1.41986 1.82523 1.44565C1.78178 1.47144 1.74608 1.50846 1.72189 1.55282L0.0343878 4.64657C-0.00113815 4.71172 -0.00947761 4.78826 0.0111864 4.85954C0.0318504 4.93081 0.0798432 4.99102 0.144708 5.02706Z" fill="#797979"/>
<path d="M15.75 2.25H14.1401C13.4759 2.25 12.9375 2.78842 12.9375 3.45263V5.53082C12.9375 5.73817 13.1056 5.90625 13.3129 5.90625H16.4995C16.7069 5.90625 16.875 5.73817 16.875 5.53082V4.21875C16.875 4.17508 16.8648 4.13201 16.8453 4.09296L16.0015 2.40546C15.9782 2.35874 15.9423 2.31945 15.8978 2.29199C15.8534 2.26453 15.8022 2.24999 15.75 2.25Z" fill="#797979"/>
<path d="M18 5.94702V9.50167C18 9.58119 17.9417 9.6328 17.8772 9.64198C17.832 9.64841 17.7884 9.62247 17.7657 9.58278C17.0879 8.39481 15.8097 7.59409 14.3438 7.59409C12.169 7.59409 10.4063 9.35683 10.4063 11.5316C10.4063 11.5376 10.4063 11.5432 10.4066 11.5492C10.4063 11.5569 10.4063 11.5643 10.4063 11.572V11.578C10.4063 11.7294 10.2824 11.8533 10.131 11.8533H7.91192C7.73695 11.8533 7.59376 11.7101 7.59376 11.5351V11.5316C7.59376 11.0447 7.50552 10.5782 7.3438 10.1478C7.2531 9.90667 7.5129 9.68343 7.73825 9.80858C7.79471 9.84 7.86026 9.85103 7.92389 9.83982C7.98753 9.82862 8.04537 9.79587 8.0877 9.74706L9.18739 8.47827H10.6815C10.7577 8.47827 10.8308 8.44801 10.8846 8.39414C10.9385 8.34028 10.9688 8.26722 10.9688 8.19104V7.35327C10.9688 7.27874 10.9986 7.20702 11.0514 7.15394L12.4573 5.74804C12.4578 5.74745 12.4584 5.74698 12.459 5.74663C12.5318 5.67456 12.6563 5.73081 12.6563 5.83347V6.10944C12.6563 6.14096 12.6688 6.17118 12.6911 6.19347C12.7133 6.21575 12.7436 6.22827 12.7751 6.22827H17.0374C17.0689 6.22827 17.0992 6.21575 17.1215 6.19347C17.1437 6.17118 17.1563 6.14096 17.1563 6.10944V5.7846C17.1563 5.75308 17.1688 5.72286 17.1911 5.70058C17.2133 5.67829 17.2436 5.66577 17.2751 5.66577H17.7188C17.7934 5.66577 17.8649 5.6954 17.9176 5.74815C17.9704 5.80089 18 5.87243 18 5.94702Z" fill="#797979"/>
<path d="M3.65625 13.219C4.58823 13.219 5.34375 12.4635 5.34375 11.5315C5.34375 10.5995 4.58823 9.84399 3.65625 9.84399C2.72427 9.84399 1.96875 10.5995 1.96875 11.5315C1.96875 12.4635 2.72427 13.219 3.65625 13.219Z" fill="#FAFAFA"/>
<path d="M14.3438 13.219C15.2757 13.219 16.0313 12.4635 16.0313 11.5315C16.0313 10.5995 15.2757 9.84399 14.3438 9.84399C13.4118 9.84399 12.6562 10.5995 12.6562 11.5315C12.6562 12.4635 13.4118 13.219 14.3438 13.219Z" fill="#FAFAFA"/>
<path d="M16.2814 4.22314L15.9458 3.55229C15.9192 3.49909 15.8783 3.45435 15.8277 3.42308C15.7771 3.39181 15.7187 3.37525 15.6593 3.37524H15.4688C15.0239 3.37524 14.6582 3.72157 14.6271 4.15867C14.5919 4.65514 14.9945 5.06274 15.4922 5.06274H15.9921C16.0771 5.06274 16.1586 5.02899 16.2187 4.96891C16.2787 4.90883 16.3125 4.82734 16.3125 4.74237V4.35508C16.3125 4.30928 16.3018 4.26411 16.2814 4.22314ZM9.5625 2.53149H3.09375C3.01916 2.53149 2.94762 2.56113 2.89488 2.61387C2.84213 2.66662 2.8125 2.73815 2.8125 2.81274C2.8125 2.88734 2.84213 2.95887 2.89488 3.01162C2.94762 3.06436 3.01916 3.09399 3.09375 3.09399H4.21875V4.78149C4.21875 4.85609 4.24838 4.92762 4.30113 4.98037C4.35387 5.03311 4.42541 5.06274 4.5 5.06274C4.57459 5.06274 4.64613 5.03311 4.69887 4.98037C4.75162 4.92762 4.78125 4.85609 4.78125 4.78149V3.09399H6.75V6.469C6.75 6.54359 6.77963 6.61512 6.83238 6.66787C6.88512 6.72061 6.95666 6.75025 7.03125 6.75025C7.10584 6.75025 7.17738 6.72061 7.23012 6.66787C7.28287 6.61512 7.3125 6.54359 7.3125 6.469V3.09399H9.28125V5.06274C9.28125 5.13734 9.31088 5.20887 9.36363 5.26162C9.41637 5.31436 9.48791 5.344 9.5625 5.344C9.63709 5.344 9.70863 5.31436 9.76137 5.26162C9.81412 5.20887 9.84375 5.13734 9.84375 5.06274V2.81274C9.84375 2.73815 9.81412 2.66662 9.76137 2.61387C9.70863 2.56113 9.63709 2.53149 9.5625 2.53149Z" fill="#FAFAFA"/>
</svg>
