<svg width="34" height="29" viewBox="0 0 34 29" fill="none" xmlns="http://www.w3.org/2000/svg">
<path d="M27.0937 28.6875C30.908 28.6875 34 25.5955 34 21.7813C34 17.967 30.908 14.875 27.0937 14.875C23.2795 14.875 20.1875 17.967 20.1875 21.7813C20.1875 25.5955 23.2795 28.6875 27.0937 28.6875Z" fill="#D74315"/>
<path d="M6.90627 28.6875C10.7205 28.6875 13.8125 25.5955 13.8125 21.7813C13.8125 17.967 10.7205 14.875 6.90627 14.875C3.09205 14.875 1.52588e-05 17.967 1.52588e-05 21.7813C1.52588e-05 25.5955 3.09205 28.6875 6.90627 28.6875Z" fill="#D74315"/>
<path d="M0.273299 9.49556L14.617 17.4643C14.7236 17.5236 14.8474 17.5444 14.9675 17.5232C15.0876 17.502 15.1967 17.44 15.2765 17.3478L22.1828 9.37909C22.2665 9.2825 22.3126 9.15899 22.3126 9.03119V6.76261C22.3126 5.52354 23.1488 4.43514 24.3461 4.11586L29.887 2.63832C30.0001 2.60815 30.1 2.54147 30.1713 2.44865C30.2426 2.35583 30.2813 2.24205 30.2813 2.125V0.53125C30.2813 0.390354 30.2253 0.255228 30.1257 0.1556C30.0261 0.0559709 29.8909 0 29.75 0H20.7188C20.6081 9.43167e-06 20.5001 0.0346019 20.41 0.0989454L16.8298 2.65625H3.71879C3.62335 2.65625 3.52968 2.68196 3.44761 2.73068C3.36555 2.77939 3.29812 2.84932 3.25242 2.9331L0.0649157 8.77685C-0.00218883 8.89991 -0.0179411 9.0445 0.0210908 9.17912C0.0601228 9.31374 0.150776 9.42749 0.273299 9.49556Z" fill="#D74315"/>
<path d="M29.75 4.25H26.7091C25.4545 4.25 24.4375 5.26701 24.4375 6.52163V10.4471C24.4375 10.8388 24.755 11.1563 25.1466 11.1563H31.1658C31.5574 11.1563 31.8749 10.8388 31.8749 10.4471V7.96875C31.8749 7.88627 31.8557 7.80491 31.8188 7.73115L30.2251 4.54365C30.181 4.4554 30.1132 4.38119 30.0292 4.32932C29.9453 4.27745 29.8486 4.24999 29.75 4.25Z" fill="#D74315"/>
<path d="M34 11.2324V17.9468C34 18.097 33.8899 18.1945 33.7681 18.2118C33.6827 18.2239 33.6003 18.1749 33.5575 18.1C32.2772 15.856 29.8627 14.3436 27.0938 14.3436C22.9859 14.3436 19.6563 17.6732 19.6563 21.7811C19.6563 21.7923 19.6563 21.803 19.6569 21.8143C19.6563 21.8289 19.6563 21.8428 19.6563 21.8574V21.8687C19.6563 22.1547 19.4222 22.3887 19.1363 22.3887H14.9447C14.6142 22.3887 14.3438 22.1183 14.3438 21.7877V21.7811C14.3438 20.8613 14.1771 19.9801 13.8716 19.1673C13.7003 18.7118 14.191 18.2901 14.6167 18.5265C14.7233 18.5858 14.8472 18.6067 14.9674 18.5855C15.0875 18.5643 15.1968 18.5025 15.2768 18.4103L17.354 16.0137H20.1762C20.3201 16.0137 20.4581 15.9565 20.5599 15.8548C20.6616 15.753 20.7188 15.615 20.7188 15.4711V13.8887C20.7188 13.7479 20.7752 13.6124 20.8748 13.5121L23.5304 10.8566C23.5313 10.8555 23.5325 10.8546 23.5337 10.8539C23.6712 10.7178 23.9063 10.824 23.9063 11.0179V11.5392C23.9063 11.5987 23.9299 11.6558 23.972 11.6979C24.0141 11.74 24.0712 11.7637 24.1307 11.7637H32.1818C32.2413 11.7637 32.2984 11.74 32.3405 11.6979C32.3826 11.6558 32.4063 11.5987 32.4063 11.5392V10.9256C32.4063 10.8661 32.4299 10.809 32.472 10.7669C32.5141 10.7248 32.5712 10.7012 32.6307 10.7012H33.4688C33.6097 10.7012 33.7448 10.7571 33.8444 10.8568C33.944 10.9564 34 11.0915 34 11.2324Z" fill="#D74315"/>
<path d="M6.90628 24.9688C8.66669 24.9688 10.0938 23.5417 10.0938 21.7813C10.0938 20.0208 8.66669 18.5938 6.90628 18.5938C5.14587 18.5938 3.71878 20.0208 3.71878 21.7813C3.71878 23.5417 5.14587 24.9688 6.90628 24.9688Z" fill="white"/>
<path d="M27.0938 24.9688C28.8542 24.9688 30.2813 23.5417 30.2813 21.7813C30.2813 20.0208 28.8542 18.5938 27.0938 18.5938C25.3333 18.5938 23.9062 20.0208 23.9062 21.7813C23.9062 23.5417 25.3333 24.9688 27.0938 24.9688Z" fill="white"/>
<path d="M30.7537 7.97659L30.1199 6.70942C30.0696 6.60893 29.9923 6.52443 29.8967 6.46536C29.8011 6.4063 29.691 6.37501 29.5786 6.375H29.2188C28.3785 6.375 27.6877 7.02917 27.6291 7.8548C27.5625 8.79259 28.323 9.5625 29.2631 9.5625H30.2074C30.3679 9.5625 30.5218 9.49874 30.6353 9.38525C30.7488 9.27176 30.8125 9.11784 30.8125 8.95734V8.22581C30.8125 8.13929 30.7924 8.05396 30.7537 7.97659ZM18.0625 4.78125H5.84378C5.70288 4.78125 5.56776 4.83722 5.46813 4.93685C5.3685 5.03648 5.31253 5.1716 5.31253 5.3125C5.31253 5.4534 5.3685 5.58852 5.46813 5.68815C5.56776 5.78778 5.70288 5.84375 5.84378 5.84375H7.96878V9.03125C7.96878 9.17215 8.02475 9.30727 8.12438 9.4069C8.22401 9.50653 8.35914 9.5625 8.50003 9.5625C8.64093 9.5625 8.77605 9.50653 8.87568 9.4069C8.97531 9.30727 9.03128 9.17215 9.03128 9.03125V5.84375H12.75V12.2188C12.75 12.3596 12.806 12.4948 12.9056 12.5944C13.0053 12.694 13.1404 12.75 13.2813 12.75C13.4222 12.75 13.5573 12.694 13.6569 12.5944C13.7566 12.4948 13.8125 12.3596 13.8125 12.2188V5.84375H17.5313V9.5625C17.5313 9.7034 17.5873 9.83852 17.6869 9.93815C17.7865 10.0378 17.9216 10.0938 18.0625 10.0938C18.2034 10.0938 18.3386 10.0378 18.4382 9.93815C18.5378 9.83852 18.5938 9.7034 18.5938 9.5625V5.3125C18.5938 5.1716 18.5378 5.03648 18.4382 4.93685C18.3386 4.83722 18.2034 4.78125 18.0625 4.78125Z" fill="white"/>
</svg>
