<svg width="20" height="20" viewBox="0 0 20 20" fill="none" xmlns="http://www.w3.org/2000/svg">
<g clip-path="url(#clip0_11823_4460)">
<path fill-rule="evenodd" clip-rule="evenodd" d="M19.5824 2.43991C19.8372 2.1694 19.9765 1.81032 19.9709 1.43879C19.9653 1.06727 19.8153 0.71253 19.5525 0.449795C19.2898 0.187059 18.9351 0.0369902 18.5635 0.0314113C18.192 0.0258324 17.8329 0.165182 17.5624 0.41991L10.6924 7.28791L12.4954 9.52591L19.5824 2.43991ZM7.50442 10.4759L9.30742 12.7139L2.43942 19.5829C2.16892 19.8376 1.80983 19.977 1.43831 19.9714C1.06678 19.9658 0.712042 19.8158 0.449306 19.553C0.18657 19.2903 0.0365019 18.9355 0.030923 18.564C0.0253441 18.1925 0.164694 17.8334 0.419422 17.5629L7.50442 10.4759Z" fill="white"/>
<path d="M2.29042 0C1.05942 0 0.443425 0 0.186425 0.324C0.105783 0.425011 0.0490337 0.542953 0.0204247 0.669C-0.0705753 1.073 0.315425 1.552 1.08742 2.511L14.7134 19.425C14.9154 19.675 15.0164 19.801 15.1494 19.88C15.1934 19.906 15.2394 19.928 15.2864 19.946C15.4314 20 15.5924 20 15.9144 20H17.7094C18.9394 20 19.5564 20 19.8134 19.676C19.8937 19.5749 19.9501 19.457 19.9784 19.331C20.0684 18.927 19.6834 18.448 18.9104 17.489L5.28642 0.575C5.08442 0.325 4.98342 0.199 4.85042 0.12C4.80648 0.0939304 4.7603 0.0718424 4.71242 0.054C4.56742 0 4.40642 0 4.08442 0H2.29042Z" fill="white"/>
</g>
<defs>
<clipPath id="clip0_11823_4460">
<rect width="20" height="20" fill="white"/>
</clipPath>
</defs>
</svg>
